{"glyphs":{"0":{"ha":375,"x_min":38,"x_max":338,"o":"m 263 925 q 316 903 294 925 q 338 850 338 882 l 338 75 q 316 22 338 43 q 263 0 294 0 l 113 0 q 59 22 81 0 q 38 75 38 43 l 38 850 q 59 903 38 882 q 113 925 81 925 l 263 925 m 238 800 q 231 818 238 811 q 213 825 224 825 l 63 825 q 116 803 94 825 q 138 750 138 782 l 138 125 q 144 107 138 114 q 163 100 151 100 l 213 100 q 231 107 224 100 q 238 125 238 114 l 238 800 z "},"1":{"ha":275,"x_min":38,"x_max":238,"o":"m 163 925 q 216 903 194 925 q 238 850 238 882 l 238 25 q 231 7 238 14 q 213 0 224 0 l 163 0 q 144 7 151 0 q 138 25 138 14 l 138 800 q 131 818 138 811 q 113 825 124 825 l 63 825 q 44 832 51 825 q 38 850 38 839 l 38 900 q 44 918 38 911 q 63 925 51 925 l 163 925 z "},"2":{"ha":375,"x_min":38,"x_max":338,"o":"m 338 25 q 331 7 338 14 q 313 0 324 0 l 113 0 q 59 22 81 0 q 38 75 38 43 l 38 475 q 59 528 38 507 q 113 550 81 550 l 213 550 q 231 557 224 550 q 238 575 238 564 l 238 800 q 231 818 238 811 q 213 825 224 825 l 63 825 q 116 803 94 825 q 138 750 138 782 q 131 732 138 739 q 113 725 124 725 l 63 725 q 44 732 51 725 q 38 750 38 739 l 38 850 q 59 903 38 882 q 113 925 81 925 l 263 925 q 316 903 294 925 q 338 850 338 882 l 338 525 q 316 472 338 493 q 263 450 294 450 l 63 450 q 116 428 94 450 q 138 375 138 407 l 138 125 q 144 107 138 114 q 163 100 151 100 l 313 100 q 331 93 324 100 q 338 75 338 86 l 338 25 z "},"3":{"ha":375,"x_min":38,"x_max":338,"o":"m 263 925 q 316 903 294 925 q 338 850 338 882 l 338 575 q 316 522 338 543 q 263 500 294 500 q 316 478 294 500 q 338 425 338 457 l 338 75 q 316 22 338 43 q 263 0 294 0 l 113 0 q 59 22 81 0 q 38 75 38 43 l 38 175 q 44 193 38 186 q 63 200 51 200 l 113 200 q 131 193 124 200 q 138 175 138 186 l 138 125 q 144 107 138 114 q 163 100 151 100 l 213 100 q 231 107 224 100 q 238 125 238 114 l 238 425 q 231 443 238 436 q 213 450 224 450 l 163 450 q 144 457 151 450 q 138 475 138 464 l 138 525 q 144 543 138 536 q 163 550 151 550 l 213 550 q 231 557 224 550 q 238 575 238 564 l 238 800 q 231 818 238 811 q 213 825 224 825 l 63 825 q 116 803 94 825 q 138 750 138 782 q 131 732 138 739 q 113 725 124 725 l 63 725 q 44 732 51 725 q 38 750 38 739 l 38 850 q 59 903 38 882 q 113 925 81 925 l 263 925 z "},"4":{"ha":375,"x_min":38,"x_max":338,"o":"m 38 900 q 44 918 38 911 q 63 925 51 925 l 113 925 q 131 918 124 925 q 138 900 138 911 l 138 625 q 116 572 138 593 q 63 550 94 550 l 213 550 q 231 557 224 550 q 238 575 238 564 l 238 700 q 244 718 238 711 q 263 725 251 725 l 313 725 q 331 718 324 725 q 338 700 338 711 l 338 25 q 331 7 338 14 q 313 0 324 0 l 263 0 q 244 7 251 0 q 238 25 238 14 l 238 425 q 231 443 238 436 q 213 450 224 450 l 113 450 q 59 472 81 450 q 38 525 38 493 l 38 900 z "},"5":{"ha":375,"x_min":38,"x_max":338,"o":"m 338 75 q 316 22 338 43 q 263 0 294 0 l 113 0 q 59 22 81 0 q 38 75 38 43 l 38 175 q 44 193 38 186 q 63 200 51 200 l 113 200 q 131 193 124 200 q 138 175 138 186 l 138 125 q 144 107 138 114 q 163 100 151 100 l 213 100 q 231 107 224 100 q 238 125 238 114 l 238 475 q 231 493 238 486 q 213 500 224 500 l 63 500 q 44 507 51 500 q 38 525 38 514 l 38 900 q 44 918 38 911 q 63 925 51 925 l 313 925 q 331 918 324 925 q 338 900 338 911 l 338 850 q 331 832 338 839 q 313 825 324 825 l 63 825 q 116 803 94 825 q 138 750 138 782 l 138 625 q 144 607 138 614 q 163 600 151 600 l 263 600 q 316 578 294 600 q 338 525 338 557 l 338 75 z "},"6":{"ha":375,"x_min":38,"x_max":338,"o":"m 263 725 q 244 732 251 725 q 238 750 238 739 l 238 800 q 231 818 238 811 q 213 825 224 825 l 63 825 q 116 803 94 825 q 138 750 138 782 l 138 625 q 144 607 138 614 q 163 600 151 600 l 263 600 q 316 578 294 600 q 338 525 338 557 l 338 75 q 316 22 338 43 q 263 0 294 0 l 113 0 q 59 22 81 0 q 38 75 38 43 l 38 850 q 59 903 38 882 q 113 925 81 925 l 263 925 q 316 903 294 925 q 338 850 338 882 l 338 750 q 331 732 338 739 q 313 725 324 725 l 263 725 m 63 500 q 116 478 94 500 q 138 425 138 457 l 138 125 q 144 107 138 114 q 163 100 151 100 l 213 100 q 231 107 224 100 q 238 125 238 114 l 238 475 q 231 493 238 486 q 213 500 224 500 l 63 500 z "},"7":{"ha":375,"x_min":38,"x_max":338,"o":"m 63 0 q 44 7 51 0 q 38 25 38 14 l 38 475 q 59 528 38 507 q 113 550 81 550 l 213 550 q 231 557 224 550 q 238 575 238 564 l 238 800 q 231 818 238 811 q 213 825 224 825 l 63 825 q 116 803 94 825 q 138 750 138 782 q 131 732 138 739 q 113 725 124 725 l 63 725 q 44 732 51 725 q 38 750 38 739 l 38 850 q 59 903 38 882 q 113 925 81 925 l 263 925 q 316 903 294 925 q 338 850 338 882 l 338 525 q 316 472 338 493 q 263 450 294 450 l 63 450 q 116 428 94 450 q 138 375 138 407 l 138 25 q 131 7 138 14 q 113 0 124 0 l 63 0 z "},"8":{"ha":375,"x_min":38,"x_max":338,"o":"m 338 575 q 316 522 338 543 q 263 500 294 500 q 316 478 294 500 q 338 425 338 457 l 338 75 q 316 22 338 43 q 263 0 294 0 l 113 0 q 59 22 81 0 q 38 75 38 43 l 38 425 q 59 478 38 457 q 113 500 81 500 q 59 522 81 500 q 38 575 38 543 l 38 850 q 59 903 38 882 q 113 925 81 925 l 263 925 q 316 903 294 925 q 338 850 338 882 l 338 575 m 238 425 q 231 443 238 436 q 213 450 224 450 l 63 450 q 116 428 94 450 q 138 375 138 407 l 138 125 q 144 107 138 114 q 163 100 151 100 l 213 100 q 231 107 224 100 q 238 125 238 114 l 238 425 m 238 800 q 231 818 238 811 q 213 825 224 825 l 63 825 q 116 803 94 825 q 138 750 138 782 l 138 575 q 144 557 138 564 q 163 550 151 550 l 213 550 q 231 557 224 550 q 238 575 238 564 l 238 800 z "},"9":{"ha":375,"x_min":38,"x_max":338,"o":"m 263 925 q 316 903 294 925 q 338 850 338 882 l 338 75 q 316 22 338 43 q 263 0 294 0 l 113 0 q 59 22 81 0 q 38 75 38 43 l 38 175 q 44 193 38 186 q 63 200 51 200 l 113 200 q 131 193 124 200 q 138 175 138 186 l 138 125 q 144 107 138 114 q 163 100 151 100 l 213 100 q 231 107 224 100 q 238 125 238 114 l 238 425 q 231 443 238 436 q 213 450 224 450 l 113 450 q 59 472 81 450 q 38 525 38 493 l 38 850 q 59 903 38 882 q 113 925 81 925 l 263 925 m 238 800 q 231 818 238 811 q 213 825 224 825 l 63 825 q 116 803 94 825 q 138 750 138 782 l 138 575 q 144 557 138 564 q 163 550 151 550 l 213 550 q 231 557 224 550 q 238 575 238 564 l 238 800 z "}," ":{"ha":300,"x_min":0,"x_max":0,"o":""},"E":{"ha":375,"x_min":38,"x_max":338,"o":"m 113 0 q 59 22 81 0 q 38 75 38 43 l 38 850 q 59 903 38 882 q 113 925 81 925 l 313 925 q 331 918 324 925 q 338 900 338 911 l 338 850 q 331 832 338 839 q 313 825 324 825 l 63 825 q 116 803 94 825 q 138 750 138 782 l 138 475 q 144 457 138 464 q 163 450 151 450 l 213 450 q 231 443 224 450 q 238 425 238 436 l 238 375 q 231 357 238 364 q 213 350 224 350 l 63 350 q 116 328 94 350 q 138 275 138 307 l 138 125 q 144 107 138 114 q 163 100 151 100 l 313 100 q 331 93 324 100 q 338 75 338 86 l 338 25 q 331 7 338 14 q 313 0 324 0 l 113 0 z "},"F":{"ha":375,"x_min":38,"x_max":338,"o":"m 38 850 q 59 903 38 882 q 113 925 81 925 l 313 925 q 331 918 324 925 q 338 900 338 911 l 338 850 q 331 832 338 839 q 313 825 324 825 l 63 825 q 116 803 94 825 q 138 750 138 782 l 138 475 q 144 457 138 464 q 163 450 151 450 l 213 450 q 231 443 224 450 q 238 425 238 436 l 238 375 q 231 357 238 364 q 213 350 224 350 l 63 350 q 116 328 94 350 q 138 275 138 307 l 138 25 q 131 7 138 14 q 113 0 124 0 l 63 0 q 44 7 51 0 q 38 25 38 14 l 38 850 z "},"G":{"ha":375,"x_min":38,"x_max":338,"o":"m 38 850 q 59 903 38 882 q 113 925 81 925 l 263 925 q 316 903 294 925 q 338 850 338 882 l 338 750 q 331 732 338 739 q 313 725 324 725 l 263 725 q 244 732 251 725 q 238 750 238 739 l 238 800 q 231 818 238 811 q 213 825 224 825 l 63 825 q 116 803 94 825 q 138 750 138 782 l 138 125 q 144 107 138 114 q 163 100 151 100 l 213 100 q 231 107 224 100 q 238 125 238 114 l 238 325 q 231 343 238 336 q 213 350 224 350 q 194 357 201 350 q 188 375 188 364 l 188 425 q 194 443 188 436 q 213 450 201 450 l 263 450 q 316 428 294 450 q 338 375 338 407 l 338 75 q 316 22 338 43 q 263 0 294 0 l 113 0 q 59 22 81 0 q 38 75 38 43 l 38 850 z "},"H":{"ha":375,"x_min":38,"x_max":338,"o":"m 38 900 q 44 918 38 911 q 63 925 51 925 l 113 925 q 131 918 124 925 q 138 900 138 911 l 138 475 q 144 457 138 464 q 163 450 151 450 l 213 450 q 231 457 224 450 q 238 475 238 464 l 238 900 q 244 918 238 911 q 263 925 251 925 l 313 925 q 331 918 324 925 q 338 900 338 911 l 338 25 q 331 7 338 14 q 313 0 324 0 l 263 0 q 244 7 251 0 q 238 25 238 14 l 238 325 q 231 343 238 336 q 213 350 224 350 l 63 350 q 116 328 94 350 q 138 275 138 307 l 138 25 q 131 7 138 14 q 113 0 124 0 l 63 0 q 44 7 51 0 q 38 25 38 14 l 38 900 z "},"I":{"ha":175,"x_min":38,"x_max":138,"o":"m 63 0 q 44 7 51 0 q 38 25 38 14 l 38 900 q 44 918 38 911 q 63 925 51 925 l 113 925 q 131 918 124 925 q 138 900 138 911 l 138 25 q 131 7 138 14 q 113 0 124 0 l 63 0 z "},"J":{"ha":375,"x_min":38,"x_max":338,"o":"m 113 0 q 59 22 81 0 q 38 75 38 43 l 38 175 q 44 193 38 186 q 63 200 51 200 l 113 200 q 131 193 124 200 q 138 175 138 186 l 138 125 q 144 107 138 114 q 163 100 151 100 l 213 100 q 231 107 224 100 q 238 125 238 114 l 238 800 q 231 818 238 811 q 213 825 224 825 q 194 832 201 825 q 188 850 188 839 l 188 900 q 194 918 188 911 q 213 925 201 925 l 263 925 q 316 903 294 925 q 338 850 338 882 l 338 75 q 316 22 338 43 q 263 0 294 0 l 113 0 z "},"K":{"ha":375,"x_min":38,"x_max":338,"o":"m 338 25 q 331 7 338 14 q 313 0 324 0 l 263 0 q 244 7 251 0 q 238 25 238 14 l 238 325 q 231 343 238 336 q 213 350 224 350 l 63 350 q 116 328 94 350 q 138 275 138 307 l 138 25 q 131 7 138 14 q 113 0 124 0 l 63 0 q 44 7 51 0 q 38 25 38 14 l 38 900 q 44 918 38 911 q 63 925 51 925 l 113 925 q 131 918 124 925 q 138 900 138 911 l 138 475 q 144 457 138 464 q 163 450 151 450 l 213 450 q 231 457 224 450 q 238 475 238 464 l 238 900 q 244 918 238 911 q 263 925 251 925 l 313 925 q 331 918 324 925 q 338 900 338 911 l 338 475 q 316 422 338 443 q 263 400 294 400 q 316 378 294 400 q 338 325 338 357 l 338 25 z "},"L":{"ha":375,"x_min":38,"x_max":338,"o":"m 38 900 q 44 918 38 911 q 63 925 51 925 l 113 925 q 131 918 124 925 q 138 900 138 911 l 138 175 q 116 122 138 143 q 63 100 94 100 l 313 100 q 331 93 324 100 q 338 75 338 86 l 338 25 q 331 7 338 14 q 313 0 324 0 l 113 0 q 59 22 81 0 q 38 75 38 43 l 38 900 z "},"M":{"ha":575,"x_min":38,"x_max":538,"o":"m 38 900 q 44 918 38 911 q 63 925 51 925 l 213 925 q 266 903 244 925 q 288 850 288 882 q 309 903 288 882 q 363 925 331 925 l 463 925 q 516 903 494 925 q 538 850 538 882 l 538 25 q 531 7 538 14 q 513 0 524 0 l 463 0 q 444 7 451 0 q 438 25 438 14 l 438 800 q 431 818 438 811 q 413 825 424 825 l 263 825 q 316 803 294 825 q 338 750 338 782 l 338 25 q 331 7 338 14 q 313 0 324 0 l 263 0 q 244 7 251 0 q 238 25 238 14 l 238 800 q 231 818 238 811 q 213 825 224 825 l 63 825 q 116 803 94 825 q 138 750 138 782 l 138 25 q 131 7 138 14 q 113 0 124 0 l 63 0 q 44 7 51 0 q 38 25 38 14 l 38 900 z "},"N":{"ha":375,"x_min":38,"x_max":338,"o":"m 338 25 q 331 7 338 14 q 313 0 324 0 l 263 0 q 244 7 251 0 q 238 25 238 14 l 238 800 q 231 818 238 811 q 213 825 224 825 l 63 825 q 116 803 94 825 q 138 750 138 782 l 138 25 q 131 7 138 14 q 113 0 124 0 l 63 0 q 44 7 51 0 q 38 25 38 14 l 38 900 q 44 918 38 911 q 63 925 51 925 l 263 925 q 316 903 294 925 q 338 850 338 882 l 338 25 z "},"O":{"ha":375,"x_min":38,"x_max":338,"o":"m 263 925 q 316 903 294 925 q 338 850 338 882 l 338 75 q 316 22 338 43 q 263 0 294 0 l 113 0 q 59 22 81 0 q 38 75 38 43 l 38 850 q 59 903 38 882 q 113 925 81 925 l 263 925 m 238 800 q 231 818 238 811 q 213 825 224 825 l 63 825 q 116 803 94 825 q 138 750 138 782 l 138 125 q 144 107 138 114 q 163 100 151 100 l 213 100 q 231 107 224 100 q 238 125 238 114 l 238 800 z "},"P":{"ha":375,"x_min":38,"x_max":338,"o":"m 263 925 q 316 903 294 925 q 338 850 338 882 l 338 425 q 316 372 338 393 q 263 350 294 350 l 63 350 q 116 328 94 350 q 138 275 138 307 l 138 25 q 131 7 138 14 q 113 0 124 0 l 63 0 q 44 7 51 0 q 38 25 38 14 l 38 900 q 44 918 38 911 q 63 925 51 925 l 263 925 m 238 800 q 231 818 238 811 q 213 825 224 825 l 63 825 q 116 803 94 825 q 138 750 138 782 l 138 475 q 144 457 138 464 q 163 450 151 450 l 213 450 q 231 457 224 450 q 238 475 238 464 l 238 800 z "},"Q":{"ha":375,"x_min":38,"x_max":338,"o":"m 263 925 q 316 903 294 925 q 338 850 338 882 l 338 75 q 316 22 338 43 q 263 0 294 0 l 163 0 q 216 -22 194 0 q 238 -75 238 -43 q 231 -93 238 -86 q 213 -100 224 -100 l 163 -100 q 144 -93 151 -100 q 138 -75 138 -86 l 138 -25 q 131 -7 138 -14 q 113 0 124 0 q 59 22 81 0 q 38 75 38 43 l 38 850 q 59 903 38 882 q 113 925 81 925 l 263 925 m 238 800 q 231 818 238 811 q 213 825 224 825 l 63 825 q 116 803 94 825 q 138 750 138 782 l 138 125 q 144 107 138 114 q 163 100 151 100 l 213 100 q 231 107 224 100 q 238 125 238 114 l 238 800 z "},"R":{"ha":375,"x_min":38,"x_max":338,"o":"m 338 475 q 316 422 338 443 q 263 400 294 400 q 316 378 294 400 q 338 325 338 357 l 338 25 q 331 7 338 14 q 313 0 324 0 l 263 0 q 244 7 251 0 q 238 25 238 14 l 238 325 q 231 343 238 336 q 213 350 224 350 l 63 350 q 116 328 94 350 q 138 275 138 307 l 138 25 q 131 7 138 14 q 113 0 124 0 l 63 0 q 44 7 51 0 q 38 25 38 14 l 38 900 q 44 918 38 911 q 63 925 51 925 l 263 925 q 316 903 294 925 q 338 850 338 882 l 338 475 m 238 800 q 231 818 238 811 q 213 825 224 825 l 63 825 q 116 803 94 825 q 138 750 138 782 l 138 475 q 144 457 138 464 q 163 450 151 450 l 213 450 q 231 457 224 450 q 238 475 238 464 l 238 800 z "},"S":{"ha":375,"x_min":38,"x_max":338,"o":"m 263 925 q 316 903 294 925 q 338 850 338 882 l 338 750 q 331 732 338 739 q 313 725 324 725 l 263 725 q 244 732 251 725 q 238 750 238 739 l 238 800 q 231 818 238 811 q 213 825 224 825 l 63 825 q 116 803 94 825 q 138 750 138 782 l 138 575 q 144 557 138 564 q 163 550 151 550 l 263 550 q 316 528 294 550 q 338 475 338 507 l 338 75 q 316 22 338 43 q 263 0 294 0 l 113 0 q 59 22 81 0 q 38 75 38 43 l 38 175 q 44 193 38 186 q 63 200 51 200 l 113 200 q 131 193 124 200 q 138 175 138 186 l 138 125 q 144 107 138 114 q 163 100 151 100 l 213 100 q 231 107 224 100 q 238 125 238 114 l 238 425 q 231 443 238 436 q 213 450 224 450 l 113 450 q 59 472 81 450 q 38 525 38 493 l 38 850 q 59 903 38 882 q 113 925 81 925 l 263 925 z "},"T":{"ha":375,"x_min":38,"x_max":338,"o":"m 163 0 q 144 7 151 0 q 138 25 138 14 l 138 800 q 131 818 138 811 q 113 825 124 825 l 63 825 q 44 832 51 825 q 38 850 38 839 l 38 900 q 44 918 38 911 q 63 925 51 925 l 313 925 q 331 918 324 925 q 338 900 338 911 l 338 850 q 331 832 338 839 q 313 825 324 825 l 163 825 q 216 803 194 825 q 238 750 238 782 l 238 25 q 231 7 238 14 q 213 0 224 0 l 163 0 z "},"U":{"ha":375,"x_min":38,"x_max":338,"o":"m 113 925 q 131 918 124 925 q 138 900 138 911 l 138 175 q 116 122 138 143 q 63 100 94 100 l 213 100 q 231 107 224 100 q 238 125 238 114 l 238 900 q 244 918 238 911 q 263 925 251 925 l 313 925 q 331 918 324 925 q 338 900 338 911 l 338 25 q 331 7 338 14 q 313 0 324 0 l 113 0 q 59 22 81 0 q 38 75 38 43 l 38 900 q 44 918 38 911 q 63 925 51 925 l 113 925 z "},"V":{"ha":375,"x_min":38,"x_max":338,"o":"m 338 75 q 316 22 338 43 q 263 0 294 0 l 113 0 q 59 22 81 0 q 38 75 38 43 l 38 900 q 44 918 38 911 q 63 925 51 925 l 113 925 q 131 918 124 925 q 138 900 138 911 l 138 175 q 116 122 138 143 q 63 100 94 100 l 213 100 q 231 107 224 100 q 238 125 238 114 l 238 900 q 244 918 238 911 q 263 925 251 925 l 313 925 q 331 918 324 925 q 338 900 338 911 l 338 75 z "},"W":{"ha":575,"x_min":38,"x_max":538,"o":"m 238 900 q 244 918 238 911 q 263 925 251 925 l 313 925 q 331 918 324 925 q 338 900 338 911 l 338 175 q 316 122 338 143 q 263 100 294 100 l 413 100 q 431 107 424 100 q 438 125 438 114 l 438 900 q 444 918 438 911 q 463 925 451 925 l 513 925 q 531 918 524 925 q 538 900 538 911 l 538 75 q 516 22 538 43 q 463 0 494 0 l 363 0 q 309 22 331 0 q 288 75 288 43 q 266 22 288 43 q 213 0 244 0 l 113 0 q 59 22 81 0 q 38 75 38 43 l 38 900 q 44 918 38 911 q 63 925 51 925 l 113 925 q 131 918 124 925 q 138 900 138 911 l 138 175 q 116 122 138 143 q 63 100 94 100 l 213 100 q 231 107 224 100 q 238 125 238 114 l 238 900 z "},"X":{"ha":375,"x_min":38,"x_max":338,"o":"m 313 925 q 331 918 324 925 q 338 900 338 911 l 338 475 q 316 422 338 443 q 263 400 294 400 q 316 378 294 400 q 338 325 338 357 l 338 25 q 331 7 338 14 q 313 0 324 0 l 263 0 q 244 7 251 0 q 238 25 238 14 l 238 325 q 231 343 238 336 q 213 350 224 350 l 63 350 q 116 328 94 350 q 138 275 138 307 l 138 25 q 131 7 138 14 q 113 0 124 0 l 63 0 q 44 7 51 0 q 38 25 38 14 l 38 325 q 59 378 38 357 q 113 400 81 400 q 59 422 81 400 q 38 475 38 443 l 38 900 q 44 918 38 911 q 63 925 51 925 l 113 925 q 131 918 124 925 q 138 900 138 911 l 138 475 q 144 457 138 464 q 163 450 151 450 l 213 450 q 231 457 224 450 q 238 475 238 464 l 238 900 q 244 918 238 911 q 263 925 251 925 l 313 925 z "},"Y":{"ha":375,"x_min":38,"x_max":338,"o":"m 238 25 q 231 7 238 14 q 213 0 224 0 l 163 0 q 144 7 151 0 q 138 25 138 14 l 138 325 q 131 343 138 336 q 113 350 124 350 q 59 372 81 350 q 38 425 38 393 l 38 900 q 44 918 38 911 q 63 925 51 925 l 113 925 q 131 918 124 925 q 138 900 138 911 l 138 475 q 144 457 138 464 q 163 450 151 450 l 213 450 q 231 457 224 450 q 238 475 238 464 l 238 900 q 244 918 238 911 q 263 925 251 925 l 313 925 q 331 918 324 925 q 338 900 338 911 l 338 425 q 316 372 338 393 q 263 350 294 350 l 163 350 q 216 328 194 350 q 238 275 238 307 l 238 25 z "},"Z":{"ha":375,"x_min":38,"x_max":338,"o":"m 38 850 q 59 903 38 882 q 113 925 81 925 l 263 925 q 316 903 294 925 q 338 850 338 882 l 338 525 q 316 472 338 493 q 263 450 294 450 l 63 450 q 116 428 94 450 q 138 375 138 407 l 138 125 q 144 107 138 114 q 163 100 151 100 l 213 100 q 231 107 224 100 q 238 125 238 114 l 238 175 q 244 193 238 186 q 263 200 251 200 l 313 200 q 331 193 324 200 q 338 175 338 186 l 338 75 q 316 22 338 43 q 263 0 294 0 l 113 0 q 59 22 81 0 q 38 75 38 43 l 38 475 q 59 528 38 507 q 113 550 81 550 l 213 550 q 231 557 224 550 q 238 575 238 564 l 238 800 q 231 818 238 811 q 213 825 224 825 l 63 825 q 116 803 94 825 q 138 750 138 782 q 131 732 138 739 q 113 725 124 725 l 63 725 q 44 732 51 725 q 38 750 38 739 l 38 850 z "},"a":{"ha":375,"x_min":38,"x_max":338,"o":"m 263 625 q 316 603 294 625 q 338 550 338 582 l 338 75 q 316 22 338 43 q 263 0 294 0 l 113 0 q 59 22 81 0 q 38 75 38 43 l 38 275 q 59 328 38 307 q 113 350 81 350 l 213 350 q 231 357 224 350 q 238 375 238 364 l 238 500 q 231 518 238 511 q 213 525 224 525 l 63 525 q 116 503 94 525 q 138 450 138 482 q 131 432 138 439 q 113 425 124 425 l 63 425 q 44 432 51 425 q 38 450 38 439 l 38 550 q 59 603 38 582 q 113 625 81 625 l 263 625 m 238 225 q 231 243 238 236 q 213 250 224 250 l 63 250 q 116 228 94 250 q 138 175 138 207 l 138 125 q 144 107 138 114 q 163 100 151 100 l 213 100 q 231 107 224 100 q 238 125 238 114 l 238 225 z "},"b":{"ha":375,"x_min":38,"x_max":338,"o":"m 263 625 q 316 603 294 625 q 338 550 338 582 l 338 75 q 316 22 338 43 q 263 0 294 0 l 63 0 q 44 7 51 0 q 38 25 38 14 l 38 900 q 44 918 38 911 q 63 925 51 925 l 113 925 q 131 918 124 925 q 138 900 138 911 l 138 650 q 144 632 138 639 q 163 625 151 625 l 263 625 m 238 500 q 231 518 238 511 q 213 525 224 525 l 63 525 q 116 503 94 525 q 138 450 138 482 l 138 125 q 144 107 138 114 q 163 100 151 100 l 213 100 q 231 107 224 100 q 238 125 238 114 l 238 500 z "},"c":{"ha":375,"x_min":38,"x_max":338,"o":"m 263 625 q 316 603 294 625 q 338 550 338 582 l 338 450 q 331 432 338 439 q 313 425 324 425 l 263 425 q 244 432 251 425 q 238 450 238 439 l 238 500 q 231 518 238 511 q 213 525 224 525 l 63 525 q 116 503 94 525 q 138 450 138 482 l 138 125 q 144 107 138 114 q 163 100 151 100 l 213 100 q 231 107 224 100 q 238 125 238 114 l 238 175 q 244 193 238 186 q 263 200 251 200 l 313 200 q 331 193 324 200 q 338 175 338 186 l 338 75 q 316 22 338 43 q 263 0 294 0 l 113 0 q 59 22 81 0 q 38 75 38 43 l 38 550 q 59 603 38 582 q 113 625 81 625 l 263 625 z "},"d":{"ha":375,"x_min":38,"x_max":338,"o":"m 313 925 q 331 918 324 925 q 338 900 338 911 l 338 25 q 331 7 338 14 q 313 0 324 0 l 113 0 q 59 22 81 0 q 38 75 38 43 l 38 550 q 59 603 38 582 q 113 625 81 625 l 213 625 q 231 632 224 625 q 238 650 238 639 l 238 900 q 244 918 238 911 q 263 925 251 925 l 313 925 m 238 500 q 231 518 238 511 q 213 525 224 525 l 63 525 q 116 503 94 525 q 138 450 138 482 l 138 125 q 144 107 138 114 q 163 100 151 100 l 213 100 q 231 107 224 100 q 238 125 238 114 l 238 500 z "},"e":{"ha":375,"x_min":38,"x_max":338,"o":"m 338 325 q 316 272 338 293 q 263 250 294 250 l 63 250 q 116 228 94 250 q 138 175 138 207 l 138 125 q 144 107 138 114 q 163 100 151 100 l 213 100 q 231 107 224 100 q 238 125 238 114 l 238 175 q 244 193 238 186 q 263 200 251 200 l 313 200 q 331 193 324 200 q 338 175 338 186 l 338 75 q 316 22 338 43 q 263 0 294 0 l 113 0 q 59 22 81 0 q 38 75 38 43 l 38 550 q 59 603 38 582 q 113 625 81 625 l 263 625 q 316 603 294 625 q 338 550 338 582 l 338 325 m 238 500 q 231 518 238 511 q 213 525 224 525 l 63 525 q 116 503 94 525 q 138 450 138 482 l 138 375 q 144 357 138 364 q 163 350 151 350 l 213 350 q 231 357 224 350 q 238 375 238 364 l 238 500 z "},"f":{"ha":375,"x_min":38,"x_max":338,"o":"m 313 925 q 331 918 324 925 q 338 900 338 911 l 338 850 q 331 832 338 839 q 313 825 324 825 l 163 825 q 216 803 194 825 q 238 750 238 782 l 238 650 q 244 632 238 639 q 263 625 251 625 l 313 625 q 331 618 324 625 q 338 600 338 611 l 338 550 q 331 532 338 539 q 313 525 324 525 l 163 525 q 216 503 194 525 q 238 450 238 482 l 238 25 q 231 7 238 14 q 213 0 224 0 l 163 0 q 144 7 151 0 q 138 25 138 14 l 138 500 q 131 518 138 511 q 113 525 124 525 l 63 525 q 44 532 51 525 q 38 550 38 539 l 38 600 q 44 618 38 611 q 63 625 51 625 l 113 625 q 131 632 124 625 q 138 650 138 639 l 138 850 q 159 903 138 882 q 213 925 181 925 l 313 925 z "},"g":{"ha":375,"x_min":38,"x_max":338,"o":"m 313 625 q 331 618 324 625 q 338 600 338 611 l 338 -200 q 316 -253 338 -232 q 263 -275 294 -275 l 113 -275 q 59 -253 81 -275 q 38 -200 38 -232 l 38 -100 q 44 -82 38 -89 q 63 -75 51 -75 l 113 -75 q 131 -82 124 -75 q 138 -100 138 -89 l 138 -150 q 144 -168 138 -161 q 163 -175 151 -175 l 213 -175 q 231 -168 224 -175 q 238 -150 238 -161 l 238 -25 q 231 -7 238 -14 q 213 0 224 0 l 113 0 q 59 22 81 0 q 38 75 38 43 l 38 550 q 59 603 38 582 q 113 625 81 625 l 313 625 m 238 500 q 231 518 238 511 q 213 525 224 525 l 63 525 q 116 503 94 525 q 138 450 138 482 l 138 125 q 144 107 138 114 q 163 100 151 100 l 213 100 q 231 107 224 100 q 238 125 238 114 l 238 500 z "},"h":{"ha":375,"x_min":38,"x_max":338,"o":"m 113 925 q 131 918 124 925 q 138 900 138 911 l 138 650 q 144 632 138 639 q 163 625 151 625 l 263 625 q 316 603 294 625 q 338 550 338 582 l 338 25 q 331 7 338 14 q 313 0 324 0 l 263 0 q 244 7 251 0 q 238 25 238 14 l 238 500 q 231 518 238 511 q 213 525 224 525 l 63 525 q 116 503 94 525 q 138 450 138 482 l 138 25 q 131 7 138 14 q 113 0 124 0 l 63 0 q 44 7 51 0 q 38 25 38 14 l 38 900 q 44 918 38 911 q 63 925 51 925 l 113 925 z "},"i":{"ha":175,"x_min":38,"x_max":138,"o":"m 113 825 q 131 818 124 825 q 138 800 138 811 l 138 750 q 131 732 138 739 q 113 725 124 725 l 63 725 q 44 732 51 725 q 38 750 38 739 l 38 800 q 44 818 38 811 q 63 825 51 825 l 113 825 m 63 625 q 44 618 51 625 q 38 600 38 611 l 38 25 q 44 7 38 14 q 63 0 51 0 l 113 0 q 131 7 124 0 q 138 25 138 14 l 138 600 q 131 618 138 611 q 113 625 124 625 l 63 625 z "},"j":{"ha":275,"x_min":38,"x_max":238,"o":"m 213 825 q 231 818 224 825 q 238 800 238 811 l 238 750 q 231 732 238 739 q 213 725 224 725 l 163 725 q 144 732 151 725 q 138 750 138 739 l 138 800 q 144 818 138 811 q 163 825 151 825 l 213 825 m 238 600 q 231 618 238 611 q 213 625 224 625 l 163 625 q 144 618 151 625 q 138 600 138 611 l 138 -150 q 131 -168 138 -161 q 113 -175 124 -175 l 63 -175 q 44 -182 51 -175 q 38 -200 38 -189 l 38 -250 q 44 -268 38 -261 q 63 -275 51 -275 l 163 -275 q 216 -253 194 -275 q 238 -200 238 -232 l 238 600 z "},"k":{"ha":375,"x_min":38,"x_max":338,"o":"m 38 900 q 44 918 38 911 q 63 925 51 925 l 113 925 q 131 918 124 925 q 138 900 138 911 l 138 375 q 144 357 138 364 q 163 350 151 350 l 213 350 q 231 357 224 350 q 238 375 238 364 l 238 600 q 244 618 238 611 q 263 625 251 625 l 313 625 q 331 618 324 625 q 338 600 338 611 l 338 375 q 316 322 338 343 q 263 300 294 300 q 316 278 294 300 q 338 225 338 257 l 338 25 q 331 7 338 14 q 313 0 324 0 l 263 0 q 244 7 251 0 q 238 25 238 14 l 238 225 q 231 243 238 236 q 213 250 224 250 l 63 250 q 116 228 94 250 q 138 175 138 207 l 138 25 q 131 7 138 14 q 113 0 124 0 l 63 0 q 44 7 51 0 q 38 25 38 14 l 38 900 z "},"l":{"ha":175,"x_min":38,"x_max":138,"o":"m 113 925 q 131 918 124 925 q 138 900 138 911 l 138 25 q 131 7 138 14 q 113 0 124 0 l 63 0 q 44 7 51 0 q 38 25 38 14 l 38 900 q 44 918 38 911 q 63 925 51 925 l 113 925 z "},"m":{"ha":575,"x_min":38,"x_max":538,"o":"m 38 600 q 44 618 38 611 q 63 625 51 625 l 213 625 q 266 603 244 625 q 288 550 288 582 q 309 603 288 582 q 363 625 331 625 l 463 625 q 516 603 494 625 q 538 550 538 582 l 538 25 q 531 7 538 14 q 513 0 524 0 l 463 0 q 444 7 451 0 q 438 25 438 14 l 438 500 q 431 518 438 511 q 413 525 424 525 l 263 525 q 316 503 294 525 q 338 450 338 482 l 338 25 q 331 7 338 14 q 313 0 324 0 l 263 0 q 244 7 251 0 q 238 25 238 14 l 238 500 q 231 518 238 511 q 213 525 224 525 l 63 525 q 116 503 94 525 q 138 450 138 482 l 138 25 q 131 7 138 14 q 113 0 124 0 l 63 0 q 44 7 51 0 q 38 25 38 14 l 38 600 z "},"n":{"ha":375,"x_min":38,"x_max":338,"o":"m 338 25 q 331 7 338 14 q 313 0 324 0 l 263 0 q 244 7 251 0 q 238 25 238 14 l 238 500 q 231 518 238 511 q 213 525 224 525 l 63 525 q 116 503 94 525 q 138 450 138 482 l 138 25 q 131 7 138 14 q 113 0 124 0 l 63 0 q 44 7 51 0 q 38 25 38 14 l 38 600 q 44 618 38 611 q 63 625 51 625 l 263 625 q 316 603 294 625 q 338 550 338 582 l 338 25 z "},"o":{"ha":375,"x_min":38,"x_max":338,"o":"m 263 625 q 316 603 294 625 q 338 550 338 582 l 338 75 q 316 22 338 43 q 263 0 294 0 l 113 0 q 59 22 81 0 q 38 75 38 43 l 38 550 q 59 603 38 582 q 113 625 81 625 l 263 625 m 238 500 q 231 518 238 511 q 213 525 224 525 l 63 525 q 116 503 94 525 q 138 450 138 482 l 138 125 q 144 107 138 114 q 163 100 151 100 l 213 100 q 231 107 224 100 q 238 125 238 114 l 238 500 z "},"p":{"ha":375,"x_min":38,"x_max":338,"o":"m 263 625 q 316 603 294 625 q 338 550 338 582 l 338 75 q 316 22 338 43 q 263 0 294 0 l 63 0 q 116 -22 94 0 q 138 -75 138 -43 l 138 -250 q 131 -268 138 -261 q 113 -275 124 -275 l 63 -275 q 44 -268 51 -275 q 38 -250 38 -261 l 38 600 q 44 618 38 611 q 63 625 51 625 l 263 625 m 238 500 q 231 518 238 511 q 213 525 224 525 l 63 525 q 116 503 94 525 q 138 450 138 482 l 138 125 q 144 107 138 114 q 163 100 151 100 l 213 100 q 231 107 224 100 q 238 125 238 114 l 238 500 z "},"q":{"ha":375,"x_min":38,"x_max":338,"o":"m 313 625 q 331 618 324 625 q 338 600 338 611 l 338 -250 q 331 -268 338 -261 q 313 -275 324 -275 l 263 -275 q 244 -268 251 -275 q 238 -250 238 -261 l 238 -25 q 231 -7 238 -14 q 213 0 224 0 l 113 0 q 59 22 81 0 q 38 75 38 43 l 38 550 q 59 603 38 582 q 113 625 81 625 l 313 625 m 238 500 q 231 518 238 511 q 213 525 224 525 l 63 525 q 116 503 94 525 q 138 450 138 482 l 138 125 q 144 107 138 114 q 163 100 151 100 l 213 100 q 231 107 224 100 q 238 125 238 114 l 238 500 z "},"r":{"ha":375,"x_min":38,"x_max":338,"o":"m 63 0 q 44 7 51 0 q 38 25 38 14 l 38 550 q 59 603 38 582 q 113 625 81 625 l 313 625 q 331 618 324 625 q 338 600 338 611 l 338 550 q 331 532 338 539 q 313 525 324 525 l 63 525 q 116 503 94 525 q 138 450 138 482 l 138 25 q 131 7 138 14 q 113 0 124 0 l 63 0 z "},"s":{"ha":375,"x_min":38,"x_max":338,"o":"m 263 625 q 316 603 294 625 q 338 550 338 582 l 338 450 q 331 432 338 439 q 313 425 324 425 l 263 425 q 244 432 251 425 q 238 450 238 439 l 238 500 q 231 518 238 511 q 213 525 224 525 l 63 525 q 116 503 94 525 q 138 450 138 482 l 138 375 q 144 357 138 364 q 163 350 151 350 l 263 350 q 316 328 294 350 q 338 275 338 307 l 338 75 q 316 22 338 43 q 263 0 294 0 l 113 0 q 59 22 81 0 q 38 75 38 43 l 38 175 q 44 193 38 186 q 63 200 51 200 l 113 200 q 131 193 124 200 q 138 175 138 186 l 138 125 q 144 107 138 114 q 163 100 151 100 l 213 100 q 231 107 224 100 q 238 125 238 114 l 238 225 q 231 243 238 236 q 213 250 224 250 l 113 250 q 59 272 81 250 q 38 325 38 293 l 38 550 q 59 603 38 582 q 113 625 81 625 l 263 625 z "},"t":{"ha":375,"x_min":38,"x_max":338,"o":"m 213 925 q 231 918 224 925 q 238 900 238 911 l 238 650 q 244 632 238 639 q 263 625 251 625 l 313 625 q 331 618 324 625 q 338 600 338 611 l 338 550 q 331 532 338 539 q 313 525 324 525 l 163 525 q 216 503 194 525 q 238 450 238 482 l 238 125 q 244 107 238 114 q 263 100 251 100 l 313 100 q 331 93 324 100 q 338 75 338 86 l 338 25 q 331 7 338 14 q 313 0 324 0 l 213 0 q 159 22 181 0 q 138 75 138 43 l 138 500 q 131 518 138 511 q 113 525 124 525 l 63 525 q 44 532 51 525 q 38 550 38 539 l 38 600 q 44 618 38 611 q 63 625 51 625 l 113 625 q 131 632 124 625 q 138 650 138 639 l 138 900 q 144 918 138 911 q 163 925 151 925 l 213 925 z "},"u":{"ha":375,"x_min":38,"x_max":338,"o":"m 113 625 q 131 618 124 625 q 138 600 138 611 l 138 175 q 116 122 138 143 q 63 100 94 100 l 213 100 q 231 107 224 100 q 238 125 238 114 l 238 600 q 244 618 238 611 q 263 625 251 625 l 313 625 q 331 618 324 625 q 338 600 338 611 l 338 25 q 331 7 338 14 q 313 0 324 0 l 113 0 q 59 22 81 0 q 38 75 38 43 l 38 600 q 44 618 38 611 q 63 625 51 625 l 113 625 z "},"v":{"ha":375,"x_min":38,"x_max":338,"o":"m 338 75 q 316 22 338 43 q 263 0 294 0 l 113 0 q 59 22 81 0 q 38 75 38 43 l 38 600 q 44 618 38 611 q 63 625 51 625 l 113 625 q 131 618 124 625 q 138 600 138 611 l 138 175 q 116 122 138 143 q 63 100 94 100 l 213 100 q 231 107 224 100 q 238 125 238 114 l 238 600 q 244 618 238 611 q 263 625 251 625 l 313 625 q 331 618 324 625 q 338 600 338 611 l 338 75 z "},"w":{"ha":575,"x_min":38,"x_max":538,"o":"m 238 600 q 244 618 238 611 q 263 625 251 625 l 313 625 q 331 618 324 625 q 338 600 338 611 l 338 175 q 316 122 338 143 q 263 100 294 100 l 413 100 q 431 107 424 100 q 438 125 438 114 l 438 600 q 444 618 438 611 q 463 625 451 625 l 513 625 q 531 618 524 625 q 538 600 538 611 l 538 75 q 516 22 538 43 q 463 0 494 0 l 363 0 q 309 22 331 0 q 288 75 288 43 q 266 22 288 43 q 213 0 244 0 l 113 0 q 59 22 81 0 q 38 75 38 43 l 38 600 q 44 618 38 611 q 63 625 51 625 l 113 625 q 131 618 124 625 q 138 600 138 611 l 138 175 q 116 122 138 143 q 63 100 94 100 l 213 100 q 231 107 224 100 q 238 125 238 114 l 238 600 z "},"x":{"ha":375,"x_min":38,"x_max":338,"o":"m 313 625 q 331 618 324 625 q 338 600 338 611 l 338 375 q 316 322 338 343 q 263 300 294 300 q 316 278 294 300 q 338 225 338 257 l 338 25 q 331 7 338 14 q 313 0 324 0 l 263 0 q 244 7 251 0 q 238 25 238 14 l 238 225 q 231 243 238 236 q 213 250 224 250 l 63 250 q 116 228 94 250 q 138 175 138 207 l 138 25 q 131 7 138 14 q 113 0 124 0 l 63 0 q 44 7 51 0 q 38 25 38 14 l 38 225 q 59 278 38 257 q 113 300 81 300 q 59 322 81 300 q 38 375 38 343 l 38 600 q 44 618 38 611 q 63 625 51 625 l 113 625 q 131 618 124 625 q 138 600 138 611 l 138 375 q 144 357 138 364 q 163 350 151 350 l 213 350 q 231 357 224 350 q 238 375 238 364 l 238 600 q 244 618 238 611 q 263 625 251 625 l 313 625 z "},"y":{"ha":375,"x_min":38,"x_max":338,"o":"m 338 -200 q 316 -253 338 -232 q 263 -275 294 -275 l 113 -275 q 59 -253 81 -275 q 38 -200 38 -232 l 38 -100 q 44 -82 38 -89 q 63 -75 51 -75 l 113 -75 q 131 -82 124 -75 q 138 -100 138 -89 l 138 -150 q 144 -168 138 -161 q 163 -175 151 -175 l 213 -175 q 231 -168 224 -175 q 238 -150 238 -161 l 238 -25 q 231 -7 238 -14 q 213 0 224 0 l 113 0 q 59 22 81 0 q 38 75 38 43 l 38 600 q 44 618 38 611 q 63 625 51 625 l 113 625 q 131 618 124 625 q 138 600 138 611 l 138 175 q 116 122 138 143 q 63 100 94 100 l 213 100 q 231 107 224 100 q 238 125 238 114 l 238 600 q 244 618 238 611 q 263 625 251 625 l 313 625 q 331 618 324 625 q 338 600 338 611 l 338 -200 z "},"z":{"ha":375,"x_min":38,"x_max":338,"o":"m 38 550 q 59 603 38 582 q 113 625 81 625 l 263 625 q 316 603 294 625 q 338 550 338 582 l 338 325 q 316 272 338 293 q 263 250 294 250 l 63 250 q 116 228 94 250 q 138 175 138 207 l 138 125 q 144 107 138 114 q 163 100 151 100 l 213 100 q 231 107 224 100 q 238 125 238 114 l 238 175 q 244 193 238 186 q 263 200 251 200 l 313 200 q 331 193 324 200 q 338 175 338 186 l 338 75 q 316 22 338 43 q 263 0 294 0 l 113 0 q 59 22 81 0 q 38 75 38 43 l 38 275 q 59 328 38 307 q 113 350 81 350 l 213 350 q 231 357 224 350 q 238 375 238 364 l 238 500 q 231 518 238 511 q 213 525 224 525 l 63 525 q 116 503 94 525 q 138 450 138 482 q 131 432 138 439 q 113 425 124 425 l 63 425 q 44 432 51 425 q 38 450 38 439 l 38 550 z "},"A":{"ha":375,"x_min":38,"x_max":338,"o":"m 263 925 q 316 903 294 925 q 338 850 338 882 l 338 25 q 331 7 338 14 q 313 0 324 0 l 263 0 q 244 7 251 0 q 238 25 238 14 l 238 325 q 231 343 238 336 q 213 350 224 350 l 63 350 q 116 328 94 350 q 138 275 138 307 l 138 25 q 131 7 138 14 q 113 0 124 0 l 63 0 q 44 7 51 0 q 38 25 38 14 l 38 850 q 59 903 38 882 q 113 925 81 925 l 263 925 m 238 800 q 231 818 238 811 q 213 825 224 825 l 63 825 q 116 803 94 825 q 138 750 138 782 l 138 475 q 144 457 138 464 q 163 450 151 450 l 213 450 q 231 457 224 450 q 238 475 238 464 l 238 800 z "},"B":{"ha":375,"x_min":38,"x_max":338,"o":"m 338 475 q 316 422 338 443 q 263 400 294 400 q 316 378 294 400 q 338 325 338 357 l 338 75 q 316 22 338 43 q 263 0 294 0 l 63 0 q 44 7 51 0 q 38 25 38 14 l 38 900 q 44 918 38 911 q 63 925 51 925 l 263 925 q 316 903 294 925 q 338 850 338 882 l 338 475 m 238 325 q 231 343 238 336 q 213 350 224 350 l 63 350 q 116 328 94 350 q 138 275 138 307 l 138 125 q 144 107 138 114 q 163 100 151 100 l 213 100 q 231 107 224 100 q 238 125 238 114 l 238 325 m 238 800 q 231 818 238 811 q 213 825 224 825 l 63 825 q 116 803 94 825 q 138 750 138 782 l 138 475 q 144 457 138 464 q 163 450 151 450 l 213 450 q 231 457 224 450 q 238 475 238 464 l 238 800 z "},"C":{"ha":375,"x_min":38,"x_max":338,"o":"m 113 0 q 59 22 81 0 q 38 75 38 43 l 38 850 q 59 903 38 882 q 113 925 81 925 l 263 925 q 316 903 294 925 q 338 850 338 882 l 338 750 q 331 732 338 739 q 313 725 324 725 l 263 725 q 244 732 251 725 q 238 750 238 739 l 238 800 q 231 818 238 811 q 213 825 224 825 l 63 825 q 116 803 94 825 q 138 750 138 782 l 138 125 q 144 107 138 114 q 163 100 151 100 l 213 100 q 231 107 224 100 q 238 125 238 114 l 238 175 q 244 193 238 186 q 263 200 251 200 l 313 200 q 331 193 324 200 q 338 175 338 186 l 338 75 q 316 22 338 43 q 263 0 294 0 l 113 0 z "},"D":{"ha":375,"x_min":38,"x_max":338,"o":"m 263 925 q 316 903 294 925 q 338 850 338 882 l 338 75 q 316 22 338 43 q 263 0 294 0 l 63 0 q 44 7 51 0 q 38 25 38 14 l 38 900 q 44 918 38 911 q 63 925 51 925 l 263 925 m 238 800 q 231 818 238 811 q 213 825 224 825 l 63 825 q 116 803 94 825 q 138 750 138 782 l 138 125 q 144 107 138 114 q 163 100 151 100 l 213 100 q 231 107 224 100 q 238 125 238 114 l 238 800 z "},"!":{"ha":175,"x_min":38,"x_max":138,"o":"m 63 0 q 44 7 51 0 q 38 25 38 14 l 38 75 q 44 93 38 86 q 63 100 51 100 l 113 100 q 131 93 124 100 q 138 75 138 86 l 138 25 q 131 7 138 14 q 113 0 124 0 l 63 0 m 63 200 q 44 207 51 200 q 38 225 38 214 l 38 900 q 44 918 38 911 q 63 925 51 925 l 113 925 q 131 918 124 925 q 138 900 138 911 l 138 225 q 131 207 138 214 q 113 200 124 200 l 63 200 z "},"\"":{"ha":325,"x_min":38,"x_max":288,"o":"m 63 725 q 44 732 51 725 q 38 750 38 739 l 38 900 q 44 918 38 911 q 63 925 51 925 l 113 925 q 131 918 124 925 q 138 900 138 911 l 138 750 q 131 732 138 739 q 113 725 124 725 l 63 725 m 213 725 q 194 732 201 725 q 188 750 188 739 l 188 900 q 194 918 188 911 q 213 925 201 925 l 263 925 q 281 918 274 925 q 288 900 288 911 l 288 750 q 281 732 288 739 q 263 725 274 725 l 213 725 z "},"$":{"ha":375,"x_min":38,"x_max":338,"o":"m 213 1025 q 231 1018 224 1025 q 238 1000 238 1011 l 238 950 q 244 932 238 939 q 263 925 251 925 q 316 903 294 925 q 338 850 338 882 l 338 750 q 331 732 338 739 q 313 725 324 725 l 263 725 q 244 732 251 725 q 238 750 238 739 l 238 800 q 231 818 238 811 q 213 825 224 825 l 63 825 q 116 803 94 825 q 138 750 138 782 l 138 575 q 144 557 138 564 q 163 550 151 550 l 263 550 q 316 528 294 550 q 338 475 338 507 l 338 75 q 316 22 338 43 q 263 0 294 0 l 163 0 q 216 -22 194 0 q 238 -75 238 -43 q 231 -93 238 -86 q 213 -100 224 -100 l 163 -100 q 144 -93 151 -100 q 138 -75 138 -86 l 138 -25 q 131 -7 138 -14 q 113 0 124 0 q 59 22 81 0 q 38 75 38 43 l 38 175 q 44 193 38 186 q 63 200 51 200 l 113 200 q 131 193 124 200 q 138 175 138 186 l 138 125 q 144 107 138 114 q 163 100 151 100 l 213 100 q 231 107 224 100 q 238 125 238 114 l 238 425 q 231 443 238 436 q 213 450 224 450 l 113 450 q 59 472 81 450 q 38 525 38 493 l 38 850 q 59 903 38 882 q 113 925 81 925 q 131 932 124 925 q 138 950 138 939 l 138 1000 q 144 1018 138 1011 q 163 1025 151 1025 l 213 1025 z "},"&":{"ha":425,"x_min":38,"x_max":388,"o":"m 363 550 q 381 543 374 550 q 388 525 388 536 l 388 475 q 381 457 388 464 q 363 450 374 450 q 344 443 351 450 q 338 425 338 436 l 338 75 q 316 22 338 43 q 263 0 294 0 l 113 0 q 59 22 81 0 q 38 75 38 43 l 38 425 q 59 478 38 457 q 113 500 81 500 q 59 522 81 500 q 38 575 38 543 l 38 850 q 59 903 38 882 q 113 925 81 925 l 263 925 q 316 903 294 925 q 338 850 338 882 l 338 750 q 331 732 338 739 q 313 725 324 725 l 263 725 q 244 732 251 725 q 238 750 238 739 l 238 800 q 231 818 238 811 q 213 825 224 825 l 63 825 q 116 803 94 825 q 138 750 138 782 l 138 575 q 144 557 138 564 q 163 550 151 550 l 213 550 q 231 557 224 550 q 238 575 238 564 q 244 593 238 586 q 263 600 251 600 l 313 600 q 331 593 324 600 q 338 575 338 586 q 344 557 338 564 q 363 550 351 550 m 238 425 q 231 443 238 436 q 213 450 224 450 l 63 450 q 116 428 94 450 q 138 375 138 407 l 138 125 q 144 107 138 114 q 163 100 151 100 l 213 100 q 231 107 224 100 q 238 125 238 114 l 238 425 z "},"'":{"ha":175,"x_min":38,"x_max":138,"o":"m 63 725 q 44 732 51 725 q 38 750 38 739 l 38 900 q 44 918 38 911 q 63 925 51 925 l 113 925 q 131 918 124 925 q 138 900 138 911 l 138 750 q 131 732 138 739 q 113 725 124 725 l 63 725 z "},"(":{"ha":375,"x_min":38,"x_max":338,"o":"m 313 925 q 331 918 324 925 q 338 900 338 911 l 338 850 q 331 832 338 839 q 313 825 324 825 l 63 825 q 116 803 94 825 q 138 750 138 782 l 138 125 q 144 107 138 114 q 163 100 151 100 l 313 100 q 331 93 324 100 q 338 75 338 86 l 338 25 q 331 7 338 14 q 313 0 324 0 l 113 0 q 59 22 81 0 q 38 75 38 43 l 38 850 q 59 903 38 882 q 113 925 81 925 l 313 925 z "},")":{"ha":375,"x_min":38,"x_max":338,"o":"m 238 800 q 231 818 238 811 q 213 825 224 825 l 63 825 q 44 832 51 825 q 38 850 38 839 l 38 900 q 44 918 38 911 q 63 925 51 925 l 263 925 q 316 903 294 925 q 338 850 338 882 l 338 75 q 316 22 338 43 q 263 0 294 0 l 63 0 q 44 7 51 0 q 38 25 38 14 l 38 75 q 44 93 38 86 q 63 100 51 100 l 213 100 q 231 107 224 100 q 238 125 238 114 l 238 800 z "},"+":{"ha":375,"x_min":38,"x_max":338,"o":"m 213 450 q 231 443 224 450 q 238 425 238 436 l 238 375 q 244 357 238 364 q 263 350 251 350 l 313 350 q 331 343 324 350 q 338 325 338 336 l 338 275 q 331 257 338 264 q 313 250 324 250 l 163 250 q 216 228 194 250 q 238 175 238 207 q 231 157 238 164 q 213 150 224 150 l 163 150 q 144 157 151 150 q 138 175 138 164 l 138 225 q 131 243 138 236 q 113 250 124 250 l 63 250 q 44 257 51 250 q 38 275 38 264 l 38 325 q 44 343 38 336 q 63 350 51 350 l 113 350 q 131 357 124 350 q 138 375 138 364 l 138 425 q 144 443 138 436 q 163 450 151 450 l 213 450 z "},",":{"ha":175,"x_min":38,"x_max":138,"o":"m 63 -100 q 44 -93 51 -100 q 38 -75 38 -86 l 38 75 q 44 93 38 86 q 63 100 51 100 l 113 100 q 131 93 124 100 q 138 75 138 86 l 138 -75 q 131 -93 138 -86 q 113 -100 124 -100 l 63 -100 z "},"-":{"ha":375,"x_min":38,"x_max":338,"o":"m 338 275 q 331 257 338 264 q 313 250 324 250 l 63 250 q 44 257 51 250 q 38 275 38 264 l 38 325 q 44 343 38 336 q 63 350 51 350 l 313 350 q 331 343 324 350 q 338 325 338 336 l 338 275 z "},".":{"ha":175,"x_min":38,"x_max":138,"o":"m 63 0 q 44 7 51 0 q 38 25 38 14 l 38 75 q 44 93 38 86 q 63 100 51 100 l 113 100 q 131 93 124 100 q 138 75 138 86 l 138 25 q 131 7 138 14 q 113 0 124 0 l 63 0 z "},":":{"ha":175,"x_min":38,"x_max":138,"o":"m 63 150 q 44 157 51 150 q 38 175 38 164 l 38 225 q 44 243 38 236 q 63 250 51 250 l 113 250 q 131 243 124 250 q 138 225 138 236 l 138 175 q 131 157 138 164 q 113 150 124 150 l 63 150 m 63 350 q 44 357 51 350 q 38 375 38 364 l 38 425 q 44 443 38 436 q 63 450 51 450 l 113 450 q 131 443 124 450 q 138 425 138 436 l 138 375 q 131 357 138 364 q 113 350 124 350 l 63 350 z "},";":{"ha":175,"x_min":38,"x_max":138,"o":"m 63 50 q 44 57 51 50 q 38 75 38 64 l 38 225 q 44 243 38 236 q 63 250 51 250 l 113 250 q 131 243 124 250 q 138 225 138 236 l 138 75 q 131 57 138 64 q 113 50 124 50 l 63 50 m 63 350 q 44 357 51 350 q 38 375 38 364 l 38 425 q 44 443 38 436 q 63 450 51 450 l 113 450 q 131 443 124 450 q 138 425 138 436 l 138 375 q 131 357 138 364 q 113 350 124 350 l 63 350 z "},"?":{"ha":375,"x_min":38,"x_max":338,"o":"m 63 0 q 44 7 51 0 q 38 25 38 14 l 38 75 q 44 93 38 86 q 63 100 51 100 l 113 100 q 131 93 124 100 q 138 75 138 86 l 138 25 q 131 7 138 14 q 113 0 124 0 l 63 0 m 63 200 q 44 207 51 200 q 38 225 38 214 l 38 475 q 59 528 38 507 q 113 550 81 550 l 213 550 q 231 557 224 550 q 238 575 238 564 l 238 800 q 231 818 238 811 q 213 825 224 825 l 63 825 q 116 803 94 825 q 138 750 138 782 q 131 732 138 739 q 113 725 124 725 l 63 725 q 44 732 51 725 q 38 750 38 739 l 38 850 q 59 903 38 882 q 113 925 81 925 l 263 925 q 316 903 294 925 q 338 850 338 882 l 338 525 q 316 472 338 493 q 263 450 294 450 l 63 450 q 116 428 94 450 q 138 375 138 407 l 138 225 q 131 207 138 214 q 113 200 124 200 l 63 200 z "},"À":{"ha":375,"x_min":38,"x_max":338,"o":"m 263 925 l 113 925 q 59 903 81 925 q 38 850 38 882 l 38 25 q 44 7 38 14 q 63 0 51 0 l 113 0 q 131 7 124 0 q 138 25 138 14 l 138 275 q 116 328 138 307 q 63 350 94 350 l 213 350 q 231 343 224 350 q 238 325 238 336 l 238 25 q 244 7 238 14 q 263 0 251 0 l 313 0 q 331 7 324 0 q 338 25 338 14 l 338 850 q 316 903 338 882 q 263 925 294 925 m 238 475 q 231 457 238 464 q 213 450 224 450 l 163 450 q 144 457 151 450 q 138 475 138 464 l 138 750 q 116 803 138 782 q 63 825 94 825 l 213 825 q 231 818 224 825 q 238 800 238 811 l 238 475 m 163 1025 q 144 1032 151 1025 q 138 1050 138 1039 l 138 1200 q 144 1218 138 1211 q 163 1225 151 1225 l 213 1225 q 231 1218 224 1225 q 238 1200 238 1211 l 238 1050 q 231 1032 238 1039 q 213 1025 224 1025 l 163 1025 z "},"Á":{"ha":375,"x_min":38,"x_max":338,"o":"m 263 925 l 113 925 q 59 903 81 925 q 38 850 38 882 l 38 25 q 44 7 38 14 q 63 0 51 0 l 113 0 q 131 7 124 0 q 138 25 138 14 l 138 275 q 116 328 138 307 q 63 350 94 350 l 213 350 q 231 343 224 350 q 238 325 238 336 l 238 25 q 244 7 238 14 q 263 0 251 0 l 313 0 q 331 7 324 0 q 338 25 338 14 l 338 850 q 316 903 338 882 q 263 925 294 925 m 238 475 q 231 457 238 464 q 213 450 224 450 l 163 450 q 144 457 151 450 q 138 475 138 464 l 138 750 q 116 803 138 782 q 63 825 94 825 l 213 825 q 231 818 224 825 q 238 800 238 811 l 238 475 m 163 1025 q 144 1032 151 1025 q 138 1050 138 1039 l 138 1200 q 144 1218 138 1211 q 163 1225 151 1225 l 213 1225 q 231 1218 224 1225 q 238 1200 238 1211 l 238 1050 q 231 1032 238 1039 q 213 1025 224 1025 l 163 1025 z "},"Ä":{"ha":375,"x_min":38,"x_max":338,"o":"m 63 1025 q 44 1032 51 1025 q 38 1050 38 1039 l 38 1100 q 44 1118 38 1111 q 63 1125 51 1125 l 113 1125 q 131 1118 124 1125 q 138 1100 138 1111 l 138 1050 q 131 1032 138 1039 q 113 1025 124 1025 l 63 1025 m 263 1025 q 244 1032 251 1025 q 238 1050 238 1039 l 238 1100 q 244 1118 238 1111 q 263 1125 251 1125 l 313 1125 q 331 1118 324 1125 q 338 1100 338 1111 l 338 1050 q 331 1032 338 1039 q 313 1025 324 1025 l 263 1025 m 263 925 l 113 925 q 59 903 81 925 q 38 850 38 882 l 38 25 q 44 7 38 14 q 63 0 51 0 l 113 0 q 131 7 124 0 q 138 25 138 14 l 138 275 q 116 328 138 307 q 63 350 94 350 l 213 350 q 231 343 224 350 q 238 325 238 336 l 238 25 q 244 7 238 14 q 263 0 251 0 l 313 0 q 331 7 324 0 q 338 25 338 14 l 338 850 q 316 903 338 882 q 263 925 294 925 m 238 475 q 231 457 238 464 q 213 450 224 450 l 163 450 q 144 457 151 450 q 138 475 138 464 l 138 750 q 116 803 138 782 q 63 825 94 825 l 213 825 q 231 818 224 825 q 238 800 238 811 l 238 475 z "},"È":{"ha":375,"x_min":38,"x_max":338,"o":"m 163 1025 q 144 1032 151 1025 q 138 1050 138 1039 l 138 1200 q 144 1218 138 1211 q 163 1225 151 1225 l 213 1225 q 231 1218 224 1225 q 238 1200 238 1211 l 238 1050 q 231 1032 238 1039 q 213 1025 224 1025 l 163 1025 m 313 0 q 331 7 324 0 q 338 25 338 14 l 338 75 q 331 93 338 86 q 313 100 324 100 l 163 100 q 144 107 151 100 q 138 125 138 114 l 138 275 q 116 328 138 307 q 63 350 94 350 l 213 350 q 231 357 224 350 q 238 375 238 364 l 238 425 q 231 443 238 436 q 213 450 224 450 l 163 450 q 144 457 151 450 q 138 475 138 464 l 138 750 q 116 803 138 782 q 63 825 94 825 l 313 825 q 331 832 324 825 q 338 850 338 839 l 338 900 q 331 918 338 911 q 313 925 324 925 l 113 925 q 59 903 81 925 q 38 850 38 882 l 38 75 q 59 22 38 43 q 113 0 81 0 l 313 0 z "},"É":{"ha":375,"x_min":38,"x_max":338,"o":"m 163 1025 q 144 1032 151 1025 q 138 1050 138 1039 l 138 1200 q 144 1218 138 1211 q 163 1225 151 1225 l 213 1225 q 231 1218 224 1225 q 238 1200 238 1211 l 238 1050 q 231 1032 238 1039 q 213 1025 224 1025 l 163 1025 m 313 0 q 331 7 324 0 q 338 25 338 14 l 338 75 q 331 93 338 86 q 313 100 324 100 l 163 100 q 144 107 151 100 q 138 125 138 114 l 138 275 q 116 328 138 307 q 63 350 94 350 l 213 350 q 231 357 224 350 q 238 375 238 364 l 238 425 q 231 443 238 436 q 213 450 224 450 l 163 450 q 144 457 151 450 q 138 475 138 464 l 138 750 q 116 803 138 782 q 63 825 94 825 l 313 825 q 331 832 324 825 q 338 850 338 839 l 338 900 q 331 918 338 911 q 313 925 324 925 l 113 925 q 59 903 81 925 q 38 850 38 882 l 38 75 q 59 22 38 43 q 113 0 81 0 l 313 0 z "},"Ë":{"ha":375,"x_min":38,"x_max":338,"o":"m 113 0 q 59 22 81 0 q 38 75 38 43 l 38 850 q 59 903 38 882 q 113 925 81 925 l 313 925 q 331 918 324 925 q 338 900 338 911 l 338 850 q 331 832 338 839 q 313 825 324 825 l 63 825 q 116 803 94 825 q 138 750 138 782 l 138 475 q 144 457 138 464 q 163 450 151 450 l 213 450 q 231 443 224 450 q 238 425 238 436 l 238 375 q 231 357 238 364 q 213 350 224 350 l 63 350 q 116 328 94 350 q 138 275 138 307 l 138 125 q 144 107 138 114 q 163 100 151 100 l 313 100 q 331 93 324 100 q 338 75 338 86 l 338 25 q 331 7 338 14 q 313 0 324 0 l 113 0 m 63 1025 q 44 1032 51 1025 q 38 1050 38 1039 l 38 1100 q 44 1118 38 1111 q 63 1125 51 1125 l 113 1125 q 131 1118 124 1125 q 138 1100 138 1111 l 138 1050 q 131 1032 138 1039 q 113 1025 124 1025 l 63 1025 m 263 1025 q 244 1032 251 1025 q 238 1050 238 1039 l 238 1100 q 244 1118 238 1111 q 263 1125 251 1125 l 313 1125 q 331 1118 324 1125 q 338 1100 338 1111 l 338 1050 q 331 1032 338 1039 q 313 1025 324 1025 l 263 1025 z "},"Ì":{"ha":175,"x_min":38,"x_max":138,"o":"m 63 0 q 44 7 51 0 q 38 25 38 14 l 38 900 q 44 918 38 911 q 63 925 51 925 l 113 925 q 131 918 124 925 q 138 900 138 911 l 138 25 q 131 7 138 14 q 113 0 124 0 l 63 0 m 63 1025 q 44 1032 51 1025 q 38 1050 38 1039 l 38 1200 q 44 1218 38 1211 q 63 1225 51 1225 l 113 1225 q 131 1218 124 1225 q 138 1200 138 1211 l 138 1050 q 131 1032 138 1039 q 113 1025 124 1025 l 63 1025 z "},"Ï":{"ha":375,"x_min":38,"x_max":338,"o":"m 163 0 q 144 7 151 0 q 138 25 138 14 l 138 900 q 144 918 138 911 q 163 925 151 925 l 213 925 q 231 918 224 925 q 238 900 238 911 l 238 25 q 231 7 238 14 q 213 0 224 0 l 163 0 m 63 1025 q 44 1032 51 1025 q 38 1050 38 1039 l 38 1100 q 44 1118 38 1111 q 63 1125 51 1125 l 113 1125 q 131 1118 124 1125 q 138 1100 138 1111 l 138 1050 q 131 1032 138 1039 q 113 1025 124 1025 l 63 1025 m 263 1025 q 244 1032 251 1025 q 238 1050 238 1039 l 238 1100 q 244 1118 238 1111 q 263 1125 251 1125 l 313 1125 q 331 1118 324 1125 q 338 1100 338 1111 l 338 1050 q 331 1032 338 1039 q 313 1025 324 1025 l 263 1025 z "},"Í":{"ha":175,"x_min":38,"x_max":138,"o":"m 63 0 q 44 7 51 0 q 38 25 38 14 l 38 900 q 44 918 38 911 q 63 925 51 925 l 113 925 q 131 918 124 925 q 138 900 138 911 l 138 25 q 131 7 138 14 q 113 0 124 0 l 63 0 m 63 1025 q 44 1032 51 1025 q 38 1050 38 1039 l 38 1200 q 44 1218 38 1211 q 63 1225 51 1225 l 113 1225 q 131 1218 124 1225 q 138 1200 138 1211 l 138 1050 q 131 1032 138 1039 q 113 1025 124 1025 l 63 1025 z "},"Ò":{"ha":375,"x_min":38,"x_max":338,"o":"m 263 925 l 113 925 q 59 903 81 925 q 38 850 38 882 l 38 75 q 59 22 38 43 q 113 0 81 0 l 263 0 q 316 22 294 0 q 338 75 338 43 l 338 850 q 316 903 338 882 q 263 925 294 925 m 238 125 q 231 107 238 114 q 213 100 224 100 l 163 100 q 144 107 151 100 q 138 125 138 114 l 138 750 q 116 803 138 782 q 63 825 94 825 l 213 825 q 231 818 224 825 q 238 800 238 811 l 238 125 m 163 1025 q 144 1032 151 1025 q 138 1050 138 1039 l 138 1200 q 144 1218 138 1211 q 163 1225 151 1225 l 213 1225 q 231 1218 224 1225 q 238 1200 238 1211 l 238 1050 q 231 1032 238 1039 q 213 1025 224 1025 l 163 1025 z "},"Ó":{"ha":375,"x_min":38,"x_max":338,"o":"m 263 925 l 113 925 q 59 903 81 925 q 38 850 38 882 l 38 75 q 59 22 38 43 q 113 0 81 0 l 263 0 q 316 22 294 0 q 338 75 338 43 l 338 850 q 316 903 338 882 q 263 925 294 925 m 238 125 q 231 107 238 114 q 213 100 224 100 l 163 100 q 144 107 151 100 q 138 125 138 114 l 138 750 q 116 803 138 782 q 63 825 94 825 l 213 825 q 231 818 224 825 q 238 800 238 811 l 238 125 m 163 1025 q 144 1032 151 1025 q 138 1050 138 1039 l 138 1200 q 144 1218 138 1211 q 163 1225 151 1225 l 213 1225 q 231 1218 224 1225 q 238 1200 238 1211 l 238 1050 q 231 1032 238 1039 q 213 1025 224 1025 l 163 1025 z "},"Ö":{"ha":375,"x_min":38,"x_max":338,"o":"m 263 925 l 113 925 q 59 903 81 925 q 38 850 38 882 l 38 75 q 59 22 38 43 q 113 0 81 0 l 263 0 q 316 22 294 0 q 338 75 338 43 l 338 850 q 316 903 338 882 q 263 925 294 925 m 238 125 q 231 107 238 114 q 213 100 224 100 l 163 100 q 144 107 151 100 q 138 125 138 114 l 138 750 q 116 803 138 782 q 63 825 94 825 l 213 825 q 231 818 224 825 q 238 800 238 811 l 238 125 m 63 1025 q 44 1032 51 1025 q 38 1050 38 1039 l 38 1100 q 44 1118 38 1111 q 63 1125 51 1125 l 113 1125 q 131 1118 124 1125 q 138 1100 138 1111 l 138 1050 q 131 1032 138 1039 q 113 1025 124 1025 l 63 1025 m 263 1025 q 244 1032 251 1025 q 238 1050 238 1039 l 238 1100 q 244 1118 238 1111 q 263 1125 251 1125 l 313 1125 q 331 1118 324 1125 q 338 1100 338 1111 l 338 1050 q 331 1032 338 1039 q 313 1025 324 1025 l 263 1025 z "},"Ù":{"ha":375,"x_min":38,"x_max":338,"o":"m 163 1025 q 144 1032 151 1025 q 138 1050 138 1039 l 138 1200 q 144 1218 138 1211 q 163 1225 151 1225 l 213 1225 q 231 1218 224 1225 q 238 1200 238 1211 l 238 1050 q 231 1032 238 1039 q 213 1025 224 1025 l 163 1025 m 63 925 q 44 918 51 925 q 38 900 38 911 l 38 75 q 59 22 38 43 q 113 0 81 0 l 313 0 q 331 7 324 0 q 338 25 338 14 l 338 900 q 331 918 338 911 q 313 925 324 925 l 263 925 q 244 918 251 925 q 238 900 238 911 l 238 125 q 231 107 238 114 q 213 100 224 100 l 63 100 q 116 122 94 100 q 138 175 138 143 l 138 900 q 131 918 138 911 q 113 925 124 925 l 63 925 z "},"Ú":{"ha":375,"x_min":38,"x_max":338,"o":"m 163 1025 q 144 1032 151 1025 q 138 1050 138 1039 l 138 1200 q 144 1218 138 1211 q 163 1225 151 1225 l 213 1225 q 231 1218 224 1225 q 238 1200 238 1211 l 238 1050 q 231 1032 238 1039 q 213 1025 224 1025 l 163 1025 m 63 925 q 44 918 51 925 q 38 900 38 911 l 38 75 q 59 22 38 43 q 113 0 81 0 l 313 0 q 331 7 324 0 q 338 25 338 14 l 338 900 q 331 918 338 911 q 313 925 324 925 l 263 925 q 244 918 251 925 q 238 900 238 911 l 238 125 q 231 107 238 114 q 213 100 224 100 l 63 100 q 116 122 94 100 q 138 175 138 143 l 138 900 q 131 918 138 911 q 113 925 124 925 l 63 925 z "},"Ü":{"ha":375,"x_min":38,"x_max":338,"o":"m 63 1025 q 44 1032 51 1025 q 38 1050 38 1039 l 38 1100 q 44 1118 38 1111 q 63 1125 51 1125 l 113 1125 q 131 1118 124 1125 q 138 1100 138 1111 l 138 1050 q 131 1032 138 1039 q 113 1025 124 1025 l 63 1025 m 263 1025 q 244 1032 251 1025 q 238 1050 238 1039 l 238 1100 q 244 1118 238 1111 q 263 1125 251 1125 l 313 1125 q 331 1118 324 1125 q 338 1100 338 1111 l 338 1050 q 331 1032 338 1039 q 313 1025 324 1025 l 263 1025 m 63 925 q 44 918 51 925 q 38 900 38 911 l 38 75 q 59 22 38 43 q 113 0 81 0 l 313 0 q 331 7 324 0 q 338 25 338 14 l 338 900 q 331 918 338 911 q 313 925 324 925 l 263 925 q 244 918 251 925 q 238 900 238 911 l 238 125 q 231 107 238 114 q 213 100 224 100 l 63 100 q 116 122 94 100 q 138 175 138 143 l 138 900 q 131 918 138 911 q 113 925 124 925 l 63 925 z "},"Ý":{"ha":375,"x_min":38,"x_max":338,"o":"m 238 25 q 231 7 238 14 q 213 0 224 0 l 163 0 q 144 7 151 0 q 138 25 138 14 l 138 325 q 131 343 138 336 q 113 350 124 350 q 59 372 81 350 q 38 425 38 393 l 38 900 q 44 918 38 911 q 63 925 51 925 l 113 925 q 131 918 124 925 q 138 900 138 911 l 138 475 q 144 457 138 464 q 163 450 151 450 l 213 450 q 231 457 224 450 q 238 475 238 464 l 238 900 q 244 918 238 911 q 263 925 251 925 l 313 925 q 331 918 324 925 q 338 900 338 911 l 338 425 q 316 372 338 393 q 263 350 294 350 l 163 350 q 216 328 194 350 q 238 275 238 307 l 238 25 m 163 1025 q 144 1032 151 1025 q 138 1050 138 1039 l 138 1200 q 144 1218 138 1211 q 163 1225 151 1225 l 213 1225 q 231 1218 224 1225 q 238 1200 238 1211 l 238 1050 q 231 1032 238 1039 q 213 1025 224 1025 l 163 1025 z "},"Ÿ":{"ha":375,"x_min":38,"x_max":338,"o":"m 238 25 q 231 7 238 14 q 213 0 224 0 l 163 0 q 144 7 151 0 q 138 25 138 14 l 138 325 q 131 343 138 336 q 113 350 124 350 q 59 372 81 350 q 38 425 38 393 l 38 900 q 44 918 38 911 q 63 925 51 925 l 113 925 q 131 918 124 925 q 138 900 138 911 l 138 475 q 144 457 138 464 q 163 450 151 450 l 213 450 q 231 457 224 450 q 238 475 238 464 l 238 900 q 244 918 238 911 q 263 925 251 925 l 313 925 q 331 918 324 925 q 338 900 338 911 l 338 425 q 316 372 338 393 q 263 350 294 350 l 163 350 q 216 328 194 350 q 238 275 238 307 l 238 25 m 63 1025 q 44 1032 51 1025 q 38 1050 38 1039 l 38 1100 q 44 1118 38 1111 q 63 1125 51 1125 l 113 1125 q 131 1118 124 1125 q 138 1100 138 1111 l 138 1050 q 131 1032 138 1039 q 113 1025 124 1025 l 63 1025 m 263 1025 q 244 1032 251 1025 q 238 1050 238 1039 l 238 1100 q 244 1118 238 1111 q 263 1125 251 1125 l 313 1125 q 331 1118 324 1125 q 338 1100 338 1111 l 338 1050 q 331 1032 338 1039 q 313 1025 324 1025 l 263 1025 z "},"à":{"ha":375,"x_min":38,"x_max":338,"o":"m 163 725 q 144 732 151 725 q 138 750 138 739 l 138 900 q 144 918 138 911 q 163 925 151 925 l 213 925 q 231 918 224 925 q 238 900 238 911 l 238 750 q 231 732 238 739 q 213 725 224 725 l 163 725 m 263 625 q 316 603 294 625 q 338 550 338 582 l 338 75 q 316 22 338 43 q 263 0 294 0 l 113 0 q 59 22 81 0 q 38 75 38 43 l 38 275 q 59 328 38 307 q 113 350 81 350 l 213 350 q 231 357 224 350 q 238 375 238 364 l 238 500 q 231 518 238 511 q 213 525 224 525 l 63 525 q 116 503 94 525 q 138 450 138 482 q 131 432 138 439 q 113 425 124 425 l 63 425 q 44 432 51 425 q 38 450 38 439 l 38 550 q 59 603 38 582 q 113 625 81 625 l 263 625 m 238 225 q 231 243 238 236 q 213 250 224 250 l 63 250 q 116 228 94 250 q 138 175 138 207 l 138 125 q 144 107 138 114 q 163 100 151 100 l 213 100 q 231 107 224 100 q 238 125 238 114 l 238 225 z "},"á":{"ha":375,"x_min":38,"x_max":338,"o":"m 163 725 q 144 732 151 725 q 138 750 138 739 l 138 900 q 144 918 138 911 q 163 925 151 925 l 213 925 q 231 918 224 925 q 238 900 238 911 l 238 750 q 231 732 238 739 q 213 725 224 725 l 163 725 m 263 625 q 316 603 294 625 q 338 550 338 582 l 338 75 q 316 22 338 43 q 263 0 294 0 l 113 0 q 59 22 81 0 q 38 75 38 43 l 38 275 q 59 328 38 307 q 113 350 81 350 l 213 350 q 231 357 224 350 q 238 375 238 364 l 238 500 q 231 518 238 511 q 213 525 224 525 l 63 525 q 116 503 94 525 q 138 450 138 482 q 131 432 138 439 q 113 425 124 425 l 63 425 q 44 432 51 425 q 38 450 38 439 l 38 550 q 59 603 38 582 q 113 625 81 625 l 263 625 m 238 225 q 231 243 238 236 q 213 250 224 250 l 63 250 q 116 228 94 250 q 138 175 138 207 l 138 125 q 144 107 138 114 q 163 100 151 100 l 213 100 q 231 107 224 100 q 238 125 238 114 l 238 225 z "},"ä":{"ha":375,"x_min":38,"x_max":338,"o":"m 63 725 q 44 732 51 725 q 38 750 38 739 l 38 800 q 44 818 38 811 q 63 825 51 825 l 113 825 q 131 818 124 825 q 138 800 138 811 l 138 750 q 131 732 138 739 q 113 725 124 725 l 63 725 m 263 725 q 244 732 251 725 q 238 750 238 739 l 238 800 q 244 818 238 811 q 263 825 251 825 l 313 825 q 331 818 324 825 q 338 800 338 811 l 338 750 q 331 732 338 739 q 313 725 324 725 l 263 725 m 263 625 q 316 603 294 625 q 338 550 338 582 l 338 75 q 316 22 338 43 q 263 0 294 0 l 113 0 q 59 22 81 0 q 38 75 38 43 l 38 275 q 59 328 38 307 q 113 350 81 350 l 213 350 q 231 357 224 350 q 238 375 238 364 l 238 500 q 231 518 238 511 q 213 525 224 525 l 63 525 q 116 503 94 525 q 138 450 138 482 q 131 432 138 439 q 113 425 124 425 l 63 425 q 44 432 51 425 q 38 450 38 439 l 38 550 q 59 603 38 582 q 113 625 81 625 l 263 625 m 238 225 q 231 243 238 236 q 213 250 224 250 l 63 250 q 116 228 94 250 q 138 175 138 207 l 138 125 q 144 107 138 114 q 163 100 151 100 l 213 100 q 231 107 224 100 q 238 125 238 114 l 238 225 z "},"è":{"ha":375,"x_min":38,"x_max":338,"o":"m 163 725 q 144 732 151 725 q 138 750 138 739 l 138 900 q 144 918 138 911 q 163 925 151 925 l 213 925 q 231 918 224 925 q 238 900 238 911 l 238 750 q 231 732 238 739 q 213 725 224 725 l 163 725 m 338 325 q 316 272 338 293 q 263 250 294 250 l 63 250 q 116 228 94 250 q 138 175 138 207 l 138 125 q 144 107 138 114 q 163 100 151 100 l 213 100 q 231 107 224 100 q 238 125 238 114 l 238 175 q 244 193 238 186 q 263 200 251 200 l 313 200 q 331 193 324 200 q 338 175 338 186 l 338 75 q 316 22 338 43 q 263 0 294 0 l 113 0 q 59 22 81 0 q 38 75 38 43 l 38 550 q 59 603 38 582 q 113 625 81 625 l 263 625 q 316 603 294 625 q 338 550 338 582 l 338 325 m 238 500 q 231 518 238 511 q 213 525 224 525 l 63 525 q 116 503 94 525 q 138 450 138 482 l 138 375 q 144 357 138 364 q 163 350 151 350 l 213 350 q 231 357 224 350 q 238 375 238 364 l 238 500 z "},"é":{"ha":375,"x_min":38,"x_max":338,"o":"m 163 725 q 144 732 151 725 q 138 750 138 739 l 138 900 q 144 918 138 911 q 163 925 151 925 l 213 925 q 231 918 224 925 q 238 900 238 911 l 238 750 q 231 732 238 739 q 213 725 224 725 l 163 725 m 338 325 q 316 272 338 293 q 263 250 294 250 l 63 250 q 116 228 94 250 q 138 175 138 207 l 138 125 q 144 107 138 114 q 163 100 151 100 l 213 100 q 231 107 224 100 q 238 125 238 114 l 238 175 q 244 193 238 186 q 263 200 251 200 l 313 200 q 331 193 324 200 q 338 175 338 186 l 338 75 q 316 22 338 43 q 263 0 294 0 l 113 0 q 59 22 81 0 q 38 75 38 43 l 38 550 q 59 603 38 582 q 113 625 81 625 l 263 625 q 316 603 294 625 q 338 550 338 582 l 338 325 m 238 500 q 231 518 238 511 q 213 525 224 525 l 63 525 q 116 503 94 525 q 138 450 138 482 l 138 375 q 144 357 138 364 q 163 350 151 350 l 213 350 q 231 357 224 350 q 238 375 238 364 l 238 500 z "},"ë":{"ha":375,"x_min":38,"x_max":338,"o":"m 338 325 q 316 272 338 293 q 263 250 294 250 l 63 250 q 116 228 94 250 q 138 175 138 207 l 138 125 q 144 107 138 114 q 163 100 151 100 l 213 100 q 231 107 224 100 q 238 125 238 114 l 238 175 q 244 193 238 186 q 263 200 251 200 l 313 200 q 331 193 324 200 q 338 175 338 186 l 338 75 q 316 22 338 43 q 263 0 294 0 l 113 0 q 59 22 81 0 q 38 75 38 43 l 38 550 q 59 603 38 582 q 113 625 81 625 l 263 625 q 316 603 294 625 q 338 550 338 582 l 338 325 m 238 500 q 231 518 238 511 q 213 525 224 525 l 63 525 q 116 503 94 525 q 138 450 138 482 l 138 375 q 144 357 138 364 q 163 350 151 350 l 213 350 q 231 357 224 350 q 238 375 238 364 l 238 500 m 63 725 q 44 732 51 725 q 38 750 38 739 l 38 800 q 44 818 38 811 q 63 825 51 825 l 113 825 q 131 818 124 825 q 138 800 138 811 l 138 750 q 131 732 138 739 q 113 725 124 725 l 63 725 m 263 725 q 244 732 251 725 q 238 750 238 739 l 238 800 q 244 818 238 811 q 263 825 251 825 l 313 825 q 331 818 324 825 q 338 800 338 811 l 338 750 q 331 732 338 739 q 313 725 324 725 l 263 725 z "},"ì":{"ha":175,"x_min":38,"x_max":138,"o":"m 113 925 q 131 918 124 925 q 138 900 138 911 l 138 750 q 131 732 138 739 q 113 725 124 725 l 63 725 q 44 732 51 725 q 38 750 38 739 l 38 900 q 44 918 38 911 q 63 925 51 925 l 113 925 m 63 625 q 44 618 51 625 q 38 600 38 611 l 38 25 q 44 7 38 14 q 63 0 51 0 l 113 0 q 131 7 124 0 q 138 25 138 14 l 138 600 q 131 618 138 611 q 113 625 124 625 l 63 625 z "},"í":{"ha":175,"x_min":38,"x_max":138,"o":"m 113 925 q 131 918 124 925 q 138 900 138 911 l 138 750 q 131 732 138 739 q 113 725 124 725 l 63 725 q 44 732 51 725 q 38 750 38 739 l 38 900 q 44 918 38 911 q 63 925 51 925 l 113 925 m 63 625 q 44 618 51 625 q 38 600 38 611 l 38 25 q 44 7 38 14 q 63 0 51 0 l 113 0 q 131 7 124 0 q 138 25 138 14 l 138 600 q 131 618 138 611 q 113 625 124 625 l 63 625 z "},"ï":{"ha":375,"x_min":38,"x_max":338,"o":"m 113 825 q 131 818 124 825 q 138 800 138 811 l 138 750 q 131 732 138 739 q 113 725 124 725 l 63 725 q 44 732 51 725 q 38 750 38 739 l 38 800 q 44 818 38 811 q 63 825 51 825 l 113 825 m 313 825 q 331 818 324 825 q 338 800 338 811 l 338 750 q 331 732 338 739 q 313 725 324 725 l 263 725 q 244 732 251 725 q 238 750 238 739 l 238 800 q 244 818 238 811 q 263 825 251 825 l 313 825 m 163 625 q 144 618 151 625 q 138 600 138 611 l 138 25 q 144 7 138 14 q 163 0 151 0 l 213 0 q 231 7 224 0 q 238 25 238 14 l 238 600 q 231 618 238 611 q 213 625 224 625 l 163 625 z "},"ò":{"ha":375,"x_min":38,"x_max":338,"o":"m 163 725 q 144 732 151 725 q 138 750 138 739 l 138 900 q 144 918 138 911 q 163 925 151 925 l 213 925 q 231 918 224 925 q 238 900 238 911 l 238 750 q 231 732 238 739 q 213 725 224 725 l 163 725 m 263 625 q 316 603 294 625 q 338 550 338 582 l 338 75 q 316 22 338 43 q 263 0 294 0 l 113 0 q 59 22 81 0 q 38 75 38 43 l 38 550 q 59 603 38 582 q 113 625 81 625 l 263 625 m 238 500 q 231 518 238 511 q 213 525 224 525 l 63 525 q 116 503 94 525 q 138 450 138 482 l 138 125 q 144 107 138 114 q 163 100 151 100 l 213 100 q 231 107 224 100 q 238 125 238 114 l 238 500 z "},"ó":{"ha":375,"x_min":38,"x_max":338,"o":"m 163 725 q 144 732 151 725 q 138 750 138 739 l 138 900 q 144 918 138 911 q 163 925 151 925 l 213 925 q 231 918 224 925 q 238 900 238 911 l 238 750 q 231 732 238 739 q 213 725 224 725 l 163 725 m 263 625 q 316 603 294 625 q 338 550 338 582 l 338 75 q 316 22 338 43 q 263 0 294 0 l 113 0 q 59 22 81 0 q 38 75 38 43 l 38 550 q 59 603 38 582 q 113 625 81 625 l 263 625 m 238 500 q 231 518 238 511 q 213 525 224 525 l 63 525 q 116 503 94 525 q 138 450 138 482 l 138 125 q 144 107 138 114 q 163 100 151 100 l 213 100 q 231 107 224 100 q 238 125 238 114 l 238 500 z "},"ö":{"ha":375,"x_min":38,"x_max":338,"o":"m 63 725 q 44 732 51 725 q 38 750 38 739 l 38 800 q 44 818 38 811 q 63 825 51 825 l 113 825 q 131 818 124 825 q 138 800 138 811 l 138 750 q 131 732 138 739 q 113 725 124 725 l 63 725 m 263 725 q 244 732 251 725 q 238 750 238 739 l 238 800 q 244 818 238 811 q 263 825 251 825 l 313 825 q 331 818 324 825 q 338 800 338 811 l 338 750 q 331 732 338 739 q 313 725 324 725 l 263 725 m 263 625 q 316 603 294 625 q 338 550 338 582 l 338 75 q 316 22 338 43 q 263 0 294 0 l 113 0 q 59 22 81 0 q 38 75 38 43 l 38 550 q 59 603 38 582 q 113 625 81 625 l 263 625 m 238 500 q 231 518 238 511 q 213 525 224 525 l 63 525 q 116 503 94 525 q 138 450 138 482 l 138 125 q 144 107 138 114 q 163 100 151 100 l 213 100 q 231 107 224 100 q 238 125 238 114 l 238 500 z "},"ù":{"ha":375,"x_min":38,"x_max":338,"o":"m 163 725 q 144 732 151 725 q 138 750 138 739 l 138 900 q 144 918 138 911 q 163 925 151 925 l 213 925 q 231 918 224 925 q 238 900 238 911 l 238 750 q 231 732 238 739 q 213 725 224 725 l 163 725 m 113 625 q 131 618 124 625 q 138 600 138 611 l 138 175 q 116 122 138 143 q 63 100 94 100 l 213 100 q 231 107 224 100 q 238 125 238 114 l 238 600 q 244 618 238 611 q 263 625 251 625 l 313 625 q 331 618 324 625 q 338 600 338 611 l 338 25 q 331 7 338 14 q 313 0 324 0 l 113 0 q 59 22 81 0 q 38 75 38 43 l 38 600 q 44 618 38 611 q 63 625 51 625 l 113 625 z "},"ú":{"ha":375,"x_min":38,"x_max":338,"o":"m 163 725 q 144 732 151 725 q 138 750 138 739 l 138 900 q 144 918 138 911 q 163 925 151 925 l 213 925 q 231 918 224 925 q 238 900 238 911 l 238 750 q 231 732 238 739 q 213 725 224 725 l 163 725 m 113 625 q 131 618 124 625 q 138 600 138 611 l 138 175 q 116 122 138 143 q 63 100 94 100 l 213 100 q 231 107 224 100 q 238 125 238 114 l 238 600 q 244 618 238 611 q 263 625 251 625 l 313 625 q 331 618 324 625 q 338 600 338 611 l 338 25 q 331 7 338 14 q 313 0 324 0 l 113 0 q 59 22 81 0 q 38 75 38 43 l 38 600 q 44 618 38 611 q 63 625 51 625 l 113 625 z "},"ü":{"ha":375,"x_min":38,"x_max":338,"o":"m 63 725 q 44 732 51 725 q 38 750 38 739 l 38 800 q 44 818 38 811 q 63 825 51 825 l 113 825 q 131 818 124 825 q 138 800 138 811 l 138 750 q 131 732 138 739 q 113 725 124 725 l 63 725 m 263 725 q 244 732 251 725 q 238 750 238 739 l 238 800 q 244 818 238 811 q 263 825 251 825 l 313 825 q 331 818 324 825 q 338 800 338 811 l 338 750 q 331 732 338 739 q 313 725 324 725 l 263 725 m 113 625 q 131 618 124 625 q 138 600 138 611 l 138 175 q 116 122 138 143 q 63 100 94 100 l 213 100 q 231 107 224 100 q 238 125 238 114 l 238 600 q 244 618 238 611 q 263 625 251 625 l 313 625 q 331 618 324 625 q 338 600 338 611 l 338 25 q 331 7 338 14 q 313 0 324 0 l 113 0 q 59 22 81 0 q 38 75 38 43 l 38 600 q 44 618 38 611 q 63 625 51 625 l 113 625 z "},"ý":{"ha":375,"x_min":38,"x_max":338,"o":"m 163 725 q 144 732 151 725 q 138 750 138 739 l 138 900 q 144 918 138 911 q 163 925 151 925 l 213 925 q 231 918 224 925 q 238 900 238 911 l 238 750 q 231 732 238 739 q 213 725 224 725 l 163 725 m 338 -200 q 316 -253 338 -232 q 263 -275 294 -275 l 113 -275 q 59 -253 81 -275 q 38 -200 38 -232 l 38 -100 q 44 -82 38 -89 q 63 -75 51 -75 l 113 -75 q 131 -82 124 -75 q 138 -100 138 -89 l 138 -150 q 144 -168 138 -161 q 163 -175 151 -175 l 213 -175 q 231 -168 224 -175 q 238 -150 238 -161 l 238 -25 q 231 -7 238 -14 q 213 0 224 0 l 113 0 q 59 22 81 0 q 38 75 38 43 l 38 600 q 44 618 38 611 q 63 625 51 625 l 113 625 q 131 618 124 625 q 138 600 138 611 l 138 175 q 116 122 138 143 q 63 100 94 100 l 213 100 q 231 107 224 100 q 238 125 238 114 l 238 600 q 244 618 238 611 q 263 625 251 625 l 313 625 q 331 618 324 625 q 338 600 338 611 l 338 -200 z "},"ÿ":{"ha":375,"x_min":38,"x_max":338,"o":"m 63 725 q 44 732 51 725 q 38 750 38 739 l 38 800 q 44 818 38 811 q 63 825 51 825 l 113 825 q 131 818 124 825 q 138 800 138 811 l 138 750 q 131 732 138 739 q 113 725 124 725 l 63 725 m 263 725 q 244 732 251 725 q 238 750 238 739 l 238 800 q 244 818 238 811 q 263 825 251 825 l 313 825 q 331 818 324 825 q 338 800 338 811 l 338 750 q 331 732 338 739 q 313 725 324 725 l 263 725 m 338 -200 q 316 -253 338 -232 q 263 -275 294 -275 l 113 -275 q 59 -253 81 -275 q 38 -200 38 -232 l 38 -100 q 44 -82 38 -89 q 63 -75 51 -75 l 113 -75 q 131 -82 124 -75 q 138 -100 138 -89 l 138 -150 q 144 -168 138 -161 q 163 -175 151 -175 l 213 -175 q 231 -168 224 -175 q 238 -150 238 -161 l 238 -25 q 231 -7 238 -14 q 213 0 224 0 l 113 0 q 59 22 81 0 q 38 75 38 43 l 38 600 q 44 618 38 611 q 63 625 51 625 l 113 625 q 131 618 124 625 q 138 600 138 611 l 138 175 q 116 122 138 143 q 63 100 94 100 l 213 100 q 231 107 224 100 q 238 125 238 114 l 238 600 q 244 618 238 611 q 263 625 251 625 l 313 625 q 331 618 324 625 q 338 600 338 611 l 338 -200 z "},"Ć":{"ha":375,"x_min":38,"x_max":338,"o":"m 113 0 q 59 22 81 0 q 38 75 38 43 l 38 850 q 59 903 38 882 q 113 925 81 925 l 263 925 q 316 903 294 925 q 338 850 338 882 l 338 750 q 331 732 338 739 q 313 725 324 725 l 263 725 q 244 732 251 725 q 238 750 238 739 l 238 800 q 231 818 238 811 q 213 825 224 825 l 63 825 q 116 803 94 825 q 138 750 138 782 l 138 125 q 144 107 138 114 q 163 100 151 100 l 213 100 q 231 107 224 100 q 238 125 238 114 l 238 175 q 244 193 238 186 q 263 200 251 200 l 313 200 q 331 193 324 200 q 338 175 338 186 l 338 75 q 316 22 338 43 q 263 0 294 0 l 113 0 m 163 1025 q 144 1032 151 1025 q 138 1050 138 1039 l 138 1200 q 144 1218 138 1211 q 163 1225 151 1225 l 213 1225 q 231 1218 224 1225 q 238 1200 238 1211 l 238 1050 q 231 1032 238 1039 q 213 1025 224 1025 l 163 1025 z "},"ć":{"ha":375,"x_min":38,"x_max":338,"o":"m 163 725 q 144 732 151 725 q 138 750 138 739 l 138 900 q 144 918 138 911 q 163 925 151 925 l 213 925 q 231 918 224 925 q 238 900 238 911 l 238 750 q 231 732 238 739 q 213 725 224 725 l 163 725 m 263 625 q 316 603 294 625 q 338 550 338 582 l 338 450 q 331 432 338 439 q 313 425 324 425 l 263 425 q 244 432 251 425 q 238 450 238 439 l 238 500 q 231 518 238 511 q 213 525 224 525 l 63 525 q 116 503 94 525 q 138 450 138 482 l 138 125 q 144 107 138 114 q 163 100 151 100 l 213 100 q 231 107 224 100 q 238 125 238 114 l 238 175 q 244 193 238 186 q 263 200 251 200 l 313 200 q 331 193 324 200 q 338 175 338 186 l 338 75 q 316 22 338 43 q 263 0 294 0 l 113 0 q 59 22 81 0 q 38 75 38 43 l 38 550 q 59 603 38 582 q 113 625 81 625 l 263 625 z "},"Ń":{"ha":375,"x_min":38,"x_max":338,"o":"m 338 25 q 331 7 338 14 q 313 0 324 0 l 263 0 q 244 7 251 0 q 238 25 238 14 l 238 800 q 231 818 238 811 q 213 825 224 825 l 63 825 q 116 803 94 825 q 138 750 138 782 l 138 25 q 131 7 138 14 q 113 0 124 0 l 63 0 q 44 7 51 0 q 38 25 38 14 l 38 900 q 44 918 38 911 q 63 925 51 925 l 263 925 q 316 903 294 925 q 338 850 338 882 l 338 25 m 163 1025 q 144 1032 151 1025 q 138 1050 138 1039 l 138 1200 q 144 1218 138 1211 q 163 1225 151 1225 l 213 1225 q 231 1218 224 1225 q 238 1200 238 1211 l 238 1050 q 231 1032 238 1039 q 213 1025 224 1025 l 163 1025 z "},"ń":{"ha":375,"x_min":38,"x_max":338,"o":"m 163 725 q 144 732 151 725 q 138 750 138 739 l 138 900 q 144 918 138 911 q 163 925 151 925 l 213 925 q 231 918 224 925 q 238 900 238 911 l 238 750 q 231 732 238 739 q 213 725 224 725 l 163 725 m 338 25 q 331 7 338 14 q 313 0 324 0 l 263 0 q 244 7 251 0 q 238 25 238 14 l 238 500 q 231 518 238 511 q 213 525 224 525 l 63 525 q 116 503 94 525 q 138 450 138 482 l 138 25 q 131 7 138 14 q 113 0 124 0 l 63 0 q 44 7 51 0 q 38 25 38 14 l 38 600 q 44 618 38 611 q 63 625 51 625 l 263 625 q 316 603 294 625 q 338 550 338 582 l 338 25 z "},"ő":{"ha":375,"x_min":38,"x_max":338,"o":"m 63 725 q 44 732 51 725 q 38 750 38 739 l 38 900 q 44 918 38 911 q 63 925 51 925 l 113 925 q 131 918 124 925 q 138 900 138 911 l 138 750 q 131 732 138 739 q 113 725 124 725 l 63 725 m 263 725 q 244 732 251 725 q 238 750 238 739 l 238 900 q 244 918 238 911 q 263 925 251 925 l 313 925 q 331 918 324 925 q 338 900 338 911 l 338 750 q 331 732 338 739 q 313 725 324 725 l 263 725 m 263 625 q 316 603 294 625 q 338 550 338 582 l 338 75 q 316 22 338 43 q 263 0 294 0 l 113 0 q 59 22 81 0 q 38 75 38 43 l 38 550 q 59 603 38 582 q 113 625 81 625 l 263 625 m 238 500 q 231 518 238 511 q 213 525 224 525 l 63 525 q 116 503 94 525 q 138 450 138 482 l 138 125 q 144 107 138 114 q 163 100 151 100 l 213 100 q 231 107 224 100 q 238 125 238 114 l 238 500 z "},"Ő":{"ha":375,"x_min":38,"x_max":338,"o":"m 263 925 l 113 925 q 59 903 81 925 q 38 850 38 882 l 38 75 q 59 22 38 43 q 113 0 81 0 l 263 0 q 316 22 294 0 q 338 75 338 43 l 338 850 q 316 903 338 882 q 263 925 294 925 m 238 125 q 231 107 238 114 q 213 100 224 100 l 163 100 q 144 107 151 100 q 138 125 138 114 l 138 750 q 116 803 138 782 q 63 825 94 825 l 213 825 q 231 818 224 825 q 238 800 238 811 l 238 125 m 63 1025 q 44 1032 51 1025 q 38 1050 38 1039 l 38 1200 q 44 1218 38 1211 q 63 1225 51 1225 l 113 1225 q 131 1218 124 1225 q 138 1200 138 1211 l 138 1050 q 131 1032 138 1039 q 113 1025 124 1025 l 63 1025 m 263 1025 q 244 1032 251 1025 q 238 1050 238 1039 l 238 1200 q 244 1218 238 1211 q 263 1225 251 1225 l 313 1225 q 331 1218 324 1225 q 338 1200 338 1211 l 338 1050 q 331 1032 338 1039 q 313 1025 324 1025 l 263 1025 z "},"Ŕ":{"ha":375,"x_min":38,"x_max":338,"o":"m 163 1025 q 144 1032 151 1025 q 138 1050 138 1039 l 138 1200 q 144 1218 138 1211 q 163 1225 151 1225 l 213 1225 q 231 1218 224 1225 q 238 1200 238 1211 l 238 1050 q 231 1032 238 1039 q 213 1025 224 1025 l 163 1025 m 338 475 l 338 850 q 316 903 338 882 q 263 925 294 925 l 63 925 q 44 918 51 925 q 38 900 38 911 l 38 25 q 44 7 38 14 q 63 0 51 0 l 113 0 q 131 7 124 0 q 138 25 138 14 l 138 275 q 116 328 138 307 q 63 350 94 350 l 213 350 q 231 343 224 350 q 238 325 238 336 l 238 25 q 244 7 238 14 q 263 0 251 0 l 313 0 q 331 7 324 0 q 338 25 338 14 l 338 325 q 316 378 338 357 q 263 400 294 400 q 316 422 294 400 q 338 475 338 443 m 238 475 q 231 457 238 464 q 213 450 224 450 l 163 450 q 144 457 151 450 q 138 475 138 464 l 138 750 q 116 803 138 782 q 63 825 94 825 l 213 825 q 231 818 224 825 q 238 800 238 811 l 238 475 z "},"ŕ":{"ha":375,"x_min":38,"x_max":338,"o":"m 163 725 q 144 732 151 725 q 138 750 138 739 l 138 900 q 144 918 138 911 q 163 925 151 925 l 213 925 q 231 918 224 925 q 238 900 238 911 l 238 750 q 231 732 238 739 q 213 725 224 725 l 163 725 m 63 0 q 44 7 51 0 q 38 25 38 14 l 38 550 q 59 603 38 582 q 113 625 81 625 l 313 625 q 331 618 324 625 q 338 600 338 611 l 338 550 q 331 532 338 539 q 313 525 324 525 l 63 525 q 116 503 94 525 q 138 450 138 482 l 138 25 q 131 7 138 14 q 113 0 124 0 l 63 0 z "},"ś":{"ha":375,"x_min":38,"x_max":338,"o":"m 163 725 q 144 732 151 725 q 138 750 138 739 l 138 900 q 144 918 138 911 q 163 925 151 925 l 213 925 q 231 918 224 925 q 238 900 238 911 l 238 750 q 231 732 238 739 q 213 725 224 725 l 163 725 m 263 625 q 316 603 294 625 q 338 550 338 582 l 338 450 q 331 432 338 439 q 313 425 324 425 l 263 425 q 244 432 251 425 q 238 450 238 439 l 238 500 q 231 518 238 511 q 213 525 224 525 l 63 525 q 116 503 94 525 q 138 450 138 482 l 138 375 q 144 357 138 364 q 163 350 151 350 l 263 350 q 316 328 294 350 q 338 275 338 307 l 338 75 q 316 22 338 43 q 263 0 294 0 l 113 0 q 59 22 81 0 q 38 75 38 43 l 38 175 q 44 193 38 186 q 63 200 51 200 l 113 200 q 131 193 124 200 q 138 175 138 186 l 138 125 q 144 107 138 114 q 163 100 151 100 l 213 100 q 231 107 224 100 q 238 125 238 114 l 238 225 q 231 243 238 236 q 213 250 224 250 l 113 250 q 59 272 81 250 q 38 325 38 293 l 38 550 q 59 603 38 582 q 113 625 81 625 l 263 625 z "},"Ś":{"ha":375,"x_min":38,"x_max":338,"o":"m 163 1025 q 144 1032 151 1025 q 138 1050 138 1039 l 138 1200 q 144 1218 138 1211 q 163 1225 151 1225 l 213 1225 q 231 1218 224 1225 q 238 1200 238 1211 l 238 1050 q 231 1032 238 1039 q 213 1025 224 1025 l 163 1025 m 113 925 q 59 903 81 925 q 38 850 38 882 l 38 525 q 59 472 38 493 q 113 450 81 450 l 213 450 q 231 443 224 450 q 238 425 238 436 l 238 125 q 231 107 238 114 q 213 100 224 100 l 163 100 q 144 107 151 100 q 138 125 138 114 l 138 175 q 131 193 138 186 q 113 200 124 200 l 63 200 q 44 193 51 200 q 38 175 38 186 l 38 75 q 59 22 38 43 q 113 0 81 0 l 263 0 q 316 22 294 0 q 338 75 338 43 l 338 475 q 316 528 338 507 q 263 550 294 550 l 163 550 q 144 557 151 550 q 138 575 138 564 l 138 750 q 116 803 138 782 q 63 825 94 825 l 213 825 q 231 818 224 825 q 238 800 238 811 l 238 750 q 244 732 238 739 q 263 725 251 725 l 313 725 q 331 732 324 725 q 338 750 338 739 l 338 850 q 316 903 338 882 q 263 925 294 925 l 113 925 z "},"Ű":{"ha":375,"x_min":38,"x_max":338,"o":"m 63 1025 q 44 1032 51 1025 q 38 1050 38 1039 l 38 1200 q 44 1218 38 1211 q 63 1225 51 1225 l 113 1225 q 131 1218 124 1225 q 138 1200 138 1211 l 138 1050 q 131 1032 138 1039 q 113 1025 124 1025 l 63 1025 m 263 1025 q 244 1032 251 1025 q 238 1050 238 1039 l 238 1200 q 244 1218 238 1211 q 263 1225 251 1225 l 313 1225 q 331 1218 324 1225 q 338 1200 338 1211 l 338 1050 q 331 1032 338 1039 q 313 1025 324 1025 l 263 1025 m 63 925 q 44 918 51 925 q 38 900 38 911 l 38 75 q 59 22 38 43 q 113 0 81 0 l 313 0 q 331 7 324 0 q 338 25 338 14 l 338 900 q 331 918 338 911 q 313 925 324 925 l 263 925 q 244 918 251 925 q 238 900 238 911 l 238 125 q 231 107 238 114 q 213 100 224 100 l 63 100 q 116 122 94 100 q 138 175 138 143 l 138 900 q 131 918 138 911 q 113 925 124 925 l 63 925 z "},"ű":{"ha":375,"x_min":38,"x_max":338,"o":"m 63 725 q 44 732 51 725 q 38 750 38 739 l 38 900 q 44 918 38 911 q 63 925 51 925 l 113 925 q 131 918 124 925 q 138 900 138 911 l 138 750 q 131 732 138 739 q 113 725 124 725 l 63 725 m 263 725 q 244 732 251 725 q 238 750 238 739 l 238 900 q 244 918 238 911 q 263 925 251 925 l 313 925 q 331 918 324 925 q 338 900 338 911 l 338 750 q 331 732 338 739 q 313 725 324 725 l 263 725 m 113 625 q 131 618 124 625 q 138 600 138 611 l 138 175 q 116 122 138 143 q 63 100 94 100 l 213 100 q 231 107 224 100 q 238 125 238 114 l 238 600 q 244 618 238 611 q 263 625 251 625 l 313 625 q 331 618 324 625 q 338 600 338 611 l 338 25 q 331 7 338 14 q 313 0 324 0 l 113 0 q 59 22 81 0 q 38 75 38 43 l 38 600 q 44 618 38 611 q 63 625 51 625 l 113 625 z "},"Ź":{"ha":375,"x_min":38,"x_max":338,"o":"m 38 850 q 59 903 38 882 q 113 925 81 925 l 263 925 q 316 903 294 925 q 338 850 338 882 l 338 525 q 316 472 338 493 q 263 450 294 450 l 63 450 q 116 428 94 450 q 138 375 138 407 l 138 125 q 144 107 138 114 q 163 100 151 100 l 213 100 q 231 107 224 100 q 238 125 238 114 l 238 175 q 244 193 238 186 q 263 200 251 200 l 313 200 q 331 193 324 200 q 338 175 338 186 l 338 75 q 316 22 338 43 q 263 0 294 0 l 113 0 q 59 22 81 0 q 38 75 38 43 l 38 475 q 59 528 38 507 q 113 550 81 550 l 213 550 q 231 557 224 550 q 238 575 238 564 l 238 800 q 231 818 238 811 q 213 825 224 825 l 63 825 q 116 803 94 825 q 138 750 138 782 q 131 732 138 739 q 113 725 124 725 l 63 725 q 44 732 51 725 q 38 750 38 739 l 38 850 m 163 1025 q 144 1032 151 1025 q 138 1050 138 1039 l 138 1200 q 144 1218 138 1211 q 163 1225 151 1225 l 213 1225 q 231 1218 224 1225 q 238 1200 238 1211 l 238 1050 q 231 1032 238 1039 q 213 1025 224 1025 l 163 1025 z "},"ź":{"ha":375,"x_min":38,"x_max":338,"o":"m 163 725 q 144 732 151 725 q 138 750 138 739 l 138 900 q 144 918 138 911 q 163 925 151 925 l 213 925 q 231 918 224 925 q 238 900 238 911 l 238 750 q 231 732 238 739 q 213 725 224 725 l 163 725 m 38 550 q 59 603 38 582 q 113 625 81 625 l 263 625 q 316 603 294 625 q 338 550 338 582 l 338 325 q 316 272 338 293 q 263 250 294 250 l 63 250 q 116 228 94 250 q 138 175 138 207 l 138 125 q 144 107 138 114 q 163 100 151 100 l 213 100 q 231 107 224 100 q 238 125 238 114 l 238 175 q 244 193 238 186 q 263 200 251 200 l 313 200 q 331 193 324 200 q 338 175 338 186 l 338 75 q 316 22 338 43 q 263 0 294 0 l 113 0 q 59 22 81 0 q 38 75 38 43 l 38 275 q 59 328 38 307 q 113 350 81 350 l 213 350 q 231 357 224 350 q 238 375 238 364 l 238 500 q 231 518 238 511 q 213 525 224 525 l 63 525 q 116 503 94 525 q 138 450 138 482 q 131 432 138 439 q 113 425 124 425 l 63 425 q 44 432 51 425 q 38 450 38 439 l 38 550 z "},"æ":{"ha":575,"x_min":38,"x_max":538,"o":"m 538 325 q 516 272 538 293 q 463 250 494 250 l 263 250 q 316 228 294 250 q 338 175 338 207 l 338 125 q 344 107 338 114 q 363 100 351 100 l 413 100 q 431 107 424 100 q 438 125 438 114 l 438 175 q 444 193 438 186 q 463 200 451 200 l 513 200 q 531 193 524 200 q 538 175 538 186 l 538 75 q 516 22 538 43 q 463 0 494 0 l 363 0 q 309 22 331 0 q 288 75 288 43 q 266 22 288 43 q 213 0 244 0 l 113 0 q 59 22 81 0 q 38 75 38 43 l 38 275 q 59 328 38 307 q 113 350 81 350 l 213 350 q 231 357 224 350 q 238 375 238 364 l 238 500 q 231 518 238 511 q 213 525 224 525 l 63 525 q 116 503 94 525 q 138 450 138 482 q 131 432 138 439 q 113 425 124 425 l 63 425 q 44 432 51 425 q 38 450 38 439 l 38 550 q 59 603 38 582 q 113 625 81 625 l 213 625 q 266 603 244 625 q 288 550 288 582 q 309 603 288 582 q 363 625 331 625 l 463 625 q 516 603 494 625 q 538 550 538 582 l 538 325 m 238 225 q 231 243 238 236 q 213 250 224 250 l 63 250 q 116 228 94 250 q 138 175 138 207 l 138 125 q 144 107 138 114 q 163 100 151 100 l 213 100 q 231 107 224 100 q 238 125 238 114 l 238 225 m 438 500 q 431 518 438 511 q 413 525 424 525 l 263 525 q 316 503 294 525 q 338 450 338 482 l 338 375 q 344 357 338 364 q 363 350 351 350 l 413 350 q 431 357 424 350 q 438 375 438 364 l 438 500 z "},"Æ":{"ha":575,"x_min":38,"x_max":538,"o":"m 538 850 q 531 832 538 839 q 513 825 524 825 l 263 825 q 316 803 294 825 q 338 750 338 782 l 338 475 q 344 457 338 464 q 363 450 351 450 l 413 450 q 431 443 424 450 q 438 425 438 436 l 438 375 q 431 357 438 364 q 413 350 424 350 l 263 350 q 316 328 294 350 q 338 275 338 307 l 338 125 q 344 107 338 114 q 363 100 351 100 l 513 100 q 531 93 524 100 q 538 75 538 86 l 538 25 q 531 7 538 14 q 513 0 524 0 l 313 0 q 259 22 281 0 q 238 75 238 43 l 238 325 q 231 343 238 336 q 213 350 224 350 l 63 350 q 116 328 94 350 q 138 275 138 307 l 138 25 q 131 7 138 14 q 113 0 124 0 l 63 0 q 44 7 51 0 q 38 25 38 14 l 38 850 q 59 903 38 882 q 113 925 81 925 l 213 925 q 266 903 244 925 q 288 850 288 882 q 309 903 288 882 q 363 925 331 925 l 513 925 q 531 918 524 925 q 538 900 538 911 l 538 850 m 238 800 q 231 818 238 811 q 213 825 224 825 l 63 825 q 116 803 94 825 q 138 750 138 782 l 138 475 q 144 457 138 464 q 163 450 151 450 l 213 450 q 231 457 224 450 q 238 475 238 464 l 238 800 z "},"Œ":{"ha":575,"x_min":38,"x_max":538,"o":"m 538 850 q 531 832 538 839 q 513 825 524 825 l 263 825 q 316 803 294 825 q 338 750 338 782 l 338 475 q 344 457 338 464 q 363 450 351 450 l 413 450 q 431 443 424 450 q 438 425 438 436 l 438 375 q 431 357 438 364 q 413 350 424 350 l 263 350 q 316 328 294 350 q 338 275 338 307 l 338 125 q 344 107 338 114 q 363 100 351 100 l 513 100 q 531 93 524 100 q 538 75 538 86 l 538 25 q 531 7 538 14 q 513 0 524 0 l 363 0 q 309 22 331 0 q 288 75 288 43 q 266 22 288 43 q 213 0 244 0 l 113 0 q 59 22 81 0 q 38 75 38 43 l 38 850 q 59 903 38 882 q 113 925 81 925 l 213 925 q 266 903 244 925 q 288 850 288 882 q 309 903 288 882 q 363 925 331 925 l 513 925 q 531 918 524 925 q 538 900 538 911 l 538 850 m 238 800 q 231 818 238 811 q 213 825 224 825 l 63 825 q 116 803 94 825 q 138 750 138 782 l 138 125 q 144 107 138 114 q 163 100 151 100 l 213 100 q 231 107 224 100 q 238 125 238 114 l 238 800 z "},"œ":{"ha":575,"x_min":38,"x_max":538,"o":"m 538 325 q 516 272 538 293 q 463 250 494 250 l 263 250 q 316 228 294 250 q 338 175 338 207 l 338 125 q 344 107 338 114 q 363 100 351 100 l 413 100 q 431 107 424 100 q 438 125 438 114 l 438 175 q 444 193 438 186 q 463 200 451 200 l 513 200 q 531 193 524 200 q 538 175 538 186 l 538 75 q 516 22 538 43 q 463 0 494 0 l 363 0 q 309 22 331 0 q 288 75 288 43 q 266 22 288 43 q 213 0 244 0 l 113 0 q 59 22 81 0 q 38 75 38 43 l 38 550 q 59 603 38 582 q 113 625 81 625 l 213 625 q 266 603 244 625 q 288 550 288 582 q 309 603 288 582 q 363 625 331 625 l 463 625 q 516 603 494 625 q 538 550 538 582 l 538 325 m 238 500 q 231 518 238 511 q 213 525 224 525 l 63 525 q 116 503 94 525 q 138 450 138 482 l 138 125 q 144 107 138 114 q 163 100 151 100 l 213 100 q 231 107 224 100 q 238 125 238 114 l 238 500 m 438 500 q 431 518 438 511 q 413 525 424 525 l 263 525 q 316 503 294 525 q 338 450 338 482 l 338 375 q 344 357 338 364 q 363 350 351 350 l 413 350 q 431 357 424 350 q 438 375 438 364 l 438 500 z "},"ﬁ":{"ha":475,"x_min":38,"x_max":438,"o":"m 338 500 q 331 518 338 511 q 313 525 324 525 l 163 525 q 216 503 194 525 q 238 450 238 482 l 238 25 q 231 7 238 14 q 213 0 224 0 l 163 0 q 144 7 151 0 q 138 25 138 14 l 138 500 q 131 518 138 511 q 113 525 124 525 l 63 525 q 44 532 51 525 q 38 550 38 539 l 38 600 q 44 618 38 611 q 63 625 51 625 l 113 625 q 131 632 124 625 q 138 650 138 639 l 138 850 q 159 903 138 882 q 213 925 181 925 l 363 925 q 416 903 394 925 q 438 850 438 882 l 438 750 q 431 732 438 739 q 413 725 424 725 l 363 725 q 344 732 351 725 q 338 750 338 739 l 338 800 q 331 818 338 811 q 313 825 324 825 l 163 825 q 216 803 194 825 q 238 750 238 782 l 238 650 q 244 632 238 639 q 263 625 251 625 l 413 625 q 431 618 424 625 q 438 600 438 611 l 438 25 q 431 7 438 14 q 413 0 424 0 l 363 0 q 344 7 351 0 q 338 25 338 14 l 338 500 z "},"ﬂ":{"ha":475,"x_min":38,"x_max":438,"o":"m 413 925 q 431 918 424 925 q 438 900 438 911 l 438 25 q 431 7 438 14 q 413 0 424 0 l 363 0 q 344 7 351 0 q 338 25 338 14 l 338 500 q 331 518 338 511 q 313 525 324 525 l 163 525 q 216 503 194 525 q 238 450 238 482 l 238 25 q 231 7 238 14 q 213 0 224 0 l 163 0 q 144 7 151 0 q 138 25 138 14 l 138 500 q 131 518 138 511 q 113 525 124 525 l 63 525 q 44 532 51 525 q 38 550 38 539 l 38 600 q 44 618 38 611 q 63 625 51 625 l 113 625 q 131 632 124 625 q 138 650 138 639 l 138 850 q 159 903 138 882 q 213 925 181 925 l 413 925 m 338 800 q 331 818 338 811 q 313 825 324 825 l 163 825 q 216 803 194 825 q 238 750 238 782 l 238 650 q 244 632 238 639 q 263 625 251 625 l 313 625 q 331 632 324 625 q 338 650 338 639 l 338 800 z "}}}
